<mxfile host="65bd71144e">
    <diagram id="HzizPKmIkbLZt0tdt-Fl" name="第 1 页">
        <mxGraphModel dx="959" dy="612" grid="1" gridSize="10" guides="1" tooltips="1" connect="1" arrows="1" fold="1" page="1" pageScale="1" pageWidth="827" pageHeight="1169" math="0" shadow="0">
            <root>
                <mxCell id="0"/>
                <mxCell id="1" parent="0"/>
                <mxCell id="8" style="edgeStyle=none;html=1;exitX=0.5;exitY=1;exitDx=0;exitDy=0;entryX=0.5;entryY=0;entryDx=0;entryDy=0;" parent="1" source="2" target="5" edge="1">
                    <mxGeometry relative="1" as="geometry"/>
                </mxCell>
                <mxCell id="2" value="" style="shape=image;verticalLabelPosition=bottom;labelBackgroundColor=default;verticalAlign=top;aspect=fixed;imageAspect=0;image=data:image/png,iVBORw0KGgoAAAANSUhEUgAAAQkAAADbCAYAAAB+6WT0AAAgAElEQVR4nO2dfVBUd5rvP3uDRKAb5T1eFOTFYKIDaLwxejOog2i4cbIzJU5mktREkjFKrakyZozRFJmaodQxVIxVZkvzatxKstnVbGazmasjuhpmNoQMQXHiKJGXAexVQEDpblA0de8f3Q2nm+7Tp98beT5Vqdjn/M7vPIdzft/zPM/v5fzdzNnz/h/hSOJsjsyO4fRXtbw4EGpjBGH88j9CbYAgCOGNiIQgCKr8XdiGG4IghAXiSQiCoIqIhCAIqohICIKgioiEIAiqiEh4yKLCYk3b/FFvONTlLwJ1fe7qHQv3K9yJCLUBWtByQz4/ftjnOrTW5Q7Hc2mp7/Pjh1lUWOzzub3FH38fb67bV/zxdxuL9yuYjAmRAPUb5w8R8Te283n6JlPbF8hrcFa3N43A2XXb/h0KEdHKWLtfwcRHkUhhVuFcOHOYs92uSyV+r5hZ1PP5Xzp9O12IcWw0zhqC1gfD0wdorLq3roTGn9ej5tnI/fIdn0QiOuNuEs3f8mcVgSA6i4xkE601vglEOP3RbQ+f8u2j9U3szdt5rLm1Nns9+bso92k9hyPuxELul3f4IBI6ElN0DHR2ojb/KjrlfxJt/m+u+DhJy9dww1dcucye4s3D482bOBzcYJtQOMPVm1yLbVoaYbjdr7GM9yKRdDcZMZ2cbTWpFEohI1PHlTPNqkISSHx5SJQ329lbSM19dfcg+5oodFe31gfV32LjeO5QiXu43a+xjNcikXhXCnTVc0WtUFIqiXSq5iu04u0D5a/GpFa3s3rcZb/9lSj0FX//fZxdtzf3zpNwwhPbbHWP1fsVCrwTiegsMpLhyhm1PIOOtCwNQqIBVzc32DfJ0/OFopvMXT4gGDie35v8g9Y3vBpj4X6NBbwSCUue4Vt1DyE6hZQYE62qQqKOpzdMi8vo7X7HGNcx3vY0W67FntuBUCWc5X75Dy9EwpJnGGhRT1gmZt1NtPlbnxKWwVZ2tfM52+ePt50jvrjZjm/vcHioA5GT0HJtY+F+jRU8FwlbnsFNwjIlGb8kLLU+7L56EVrOF4y3zlh/wNx5Y1qTmv44r9wv/+Dx3A1LwtKgKWHZ6YeEpRb8JRA23HXdaR3hGcw3uVoyLpioJS5dufzusP3NleW1Xlu43q+xhGeehKaBUZaE5UDLH31OWNpwd+MC2YOhrMfZuTzNiDse5w/73NkQ7Idfi1uvdv2Ojdqbawvn+zXW8EgkNA2MsiYsOzvVwhH3uBuEo1bOnUur5Ub74rq6w1nuQLlPq02Odakd5+nYiUA1BF9DPldlvTmPVvx5v8YiHohE8BKWEPjJTIF+g3tyjDd2eJqdVz7c/hYVV/a5aliO5/Jku6uyWkOPUN2vsYz2hXCT5rIoF84eVxv3oG3ClyAIYwdZLVsQBFVkZSpBEFQRkRAEQRURCUEQVBGREARBFREJQRBUEZEQBEEVEQlBEFQZM0vqe082q7asJbfvCOX7jms85DE2PzUHHW0c2/o6nwfWQG08eYlzKwwANH82jxUHQmyPMG4YByJxG1DQS+0Kg4iDEBJEJJzR9CE7t34YaiuGKV3QR6wxk30iEEIIkJyEIAiqaPYkdOt3kRl3jvMVbzGk2B75023MnAuGt16i54JyW9RIIaPDcUueJ7cYWl44wZ3lT5Cqt25vP8mZ1z/18BKsOQf9yJaOo5t486R9KVNPG5mrXqZ0jq2gfb5h0bpKlqY5VG08xf4dH9LioUWCcDuhWSRMZw1QfA9JS8BwwrZ1LvoZUdB+clggWPI8aXzMmRfqrRseIfWVxcxc/4iDAKSS+coTDNS/z5mP6mHGGrLXLCZ1yaeK+t1RyDPbH2Ja+xHKd1iTkovXU7Gsks1Jb7DzYNNwSd2ctZS2H6F863FswrJ0XSGfW5OZn+/bZJegXLSukqVxWu0QhNsX7TmJEycwPPgEqbMewXDC2thn3EecHnr+pGj8J16lye7AT7nWvpiEuBQiwc4L6Tm8cUQQLnQyyD1EpcwF6tFC5qr/zTTaOKbstTj5OsdmVrI0+34yaRrxAtqVvRtNHKxpI3fZPSziuF97L1amz2dNRrTznd3f8JDHc+hvUpDTR39jGvt9tk4QPMeDxGU9xgsrYe4MdIAJiLxvOtHGc7TbvfnnkqAMIWwYHesb5PpF5e9PMbzgWagxLUEP7f81qpF/fr6NpcvimQauQ4WLvZjIJjkbHFTNJz5uq+XjNn/UdJP97zbwgD6OL/fMY361P+oUBM/xqHdj6KNaeuYuZtISMJ2whBoDF75WeAc2gTDQ8sKr2Baws+Qz/Gm2H5gajy7UNqgygdKn5mERizrO/XAm92wKb4uF2xMPu0AtoUPmrEcwXEwhTm/g8kfK0GAqE/UwUH8C31a41EZHjxHmjA4ZFs1MB+MpOlSOzUyKB3rp8qMXAYEINyZQ3RjHAzlDlIKEHELQ8XichCWBOYOE++KJbq91EIOLXDdCQuJUbHkF3fpdZKbhJNzwnZZTTZjmzLFLQLJ4PUvToOOoSq9E9mOsmqPHdOpDv4+m9F+4IQjhgeeDqWwJzLmDGN5yzCHU0/PRfcStWUzuK4stm9pPcr5+PjNn+G7sKJo+ZOfWTp7Z/hAV2x+ybjRy5t1NjHRsNNHVB6QpyzjvJhUEYTSyxqULFq2rZCkezPcIIKWbm3khJ45XnoqXcEMIOjLiEiwTutYV2v1+IA06zodeIAD2X44GfQsrnwy1JcJ4RDwJK/ajMcMvHCnd3MwL8/oAmQUqBBcRCUEQVJFwQxAEVUQkBEFQRURCEARVNIlEQmIiERGyPo0gjEfEkwhDjr++PNQmCMIw4h6ECGdCULj+D6rl1fYLQqAQkQgRjg3eF+/Bm2NFcAStiEgEgF++uJziqdD+n3+glHyO/yAFLp6m8LedXtXnzovwR4NftfZB1n0vBtNf/sTfn0rh338+A53pAvtebOGgz7ULYxnJSQSAtj4zYKbnInCx36dp88EKMw52W6zs7TbDV2Z6A35GYawgnkSQMPWNlgp3YULI8xBXzeJFCCISAecrM70/h3gXuwMdRniHiR4TOC4eLoxPNM3dSEhM5NrVq9y6dcsvJ12+YQcrOMqz38xkz8O2R9FI3b7tHGhUllzCxteWkaHY0vr7Lew6NrKP3x+Fhy1lWn+/hbOzd7AiHfrr3ualD5rtz5nurB57bBO9TKfsV9sOBI6egtYEpDPx8CR5KUlLwRNC50mkL2NP3Gn2PLeXb8niyV//gnmPPUrNr/6FbwHI4slfz+Tsc1vYZT3k7se38uzDW3myY0RMMh5eQN2+LZwt3kHB97dS8O3b7Ol+lGfnLWP5B3v5g63uvqM8+5x1xd6cR9m2bgcbcS4UocLWeG3i4Um4IQ1fCBShS1z2n2bPsCA0U/OtEWLjFV5DMwd+tRflo/9tXTP96EmYptjYVjMsGLGxfVQrvAcAli5jXmw7n+1WLOnd+C9Ut0HG7CWjzGo5+BvKt24KuBdh4/jry4f/c8QmFIIQSsI7J7G0TBGOjNCj+Hd/d7viRy+tDmXvTokD9Kx4bQcrHCvqT+ZusApV8PEm1BCEYBO+ImEVCLvcQs6jbFuX70Vl7Xz2nL1XMlbwNOwQBH8TtuMkLB5A++jwwUO+7ewD4rgrxy9mhQQJO4RQEraehF3jbmTYi4jFPtxwy7Gj1H3/F8xbV8ZlDd5EMHs33KH0IFx5FL6Ih7feie3jyuHwNxICT9iKBMf28tnsHaxYt4N5gKWL9CgJ65Z5WFEzB371Nvz6F6PyEq66QYOFWi+Gs23OyoYiDOnoMUKaHt2ch1h08HW/f7tECC9CMk5CGEGrQIQX1q+5G0+xf4fKR5CE24KwzUmMF5yJQXgLhO1r7tBRIwIxHgjfcEMIP7IfY/NTc9CN+kqacDsj4YYgCKpIuCEIgioiEoIgqCIiIQiCKiISgiCoIiIhCIIqIhKCIKgiIiEIgiohEYlF6yqp2PIYmaE4uSAIHhHmnkQ2q7ZUUrGuMNSGCMK4JcxFQhCEUCMiIQiCKqGb4NXXScvi9VQss61zb+TMu7+xTBoankhkRf8QFdsfGj604+gm3jxpK5dNy7sfwqq15OqtBdqPUL7veNAuRRBuZ0Iywcu2shGK9QgWratkaZzj+gTZrNqyltw+F41eISbDwmEVnuHfgiD4ROjCDYcFSz4/dgqTPpv7sj2vyk4QTp6jA4hL8qIiQRBGET45iaZO+tATNzXUhgiCoCR8RCI7hbhQ2yAIwijCRySmxqPDSN/FUBsiCIKSMBGJQp5Zlg7t/+WwJFoTXX1A2j0s8sc5tldSsf1lVkm6QhA0E5IuUMuS7HMo3T5neJvp1BuUO1k08fN9b5C8ZS1Lt1ey1Ha8Vz0XbfQZYZpeT+7SQg42SRepIGhhfK1xae0elY/KCIJ2wiTcCAbZrFqQDrTxpQiEIGhmXCypb/t0H8ZT7N8q34oQBE8YX+GGIAgeM47CDUEQvEFEQhAEVUQkBEFQRVPisufKlUDbIQhCmCKehCAIqohICIKgioiEIAiqeCQSFZV1nDtYx7mDl6gIlEWCIIQVmgZTOVJRWUdJQiavPBXP/kBYJQhC2OBVuFH+H5n06/soKPC3OYIghBuSkxAEQZWATfC6+/GtPDtPT3/d27z0QXOgTiMIQoART0IQBFW8SlzCTfa/28ADPTO5Z5POfXFBEMYsXnoSEyh9ah6vXOnk3ME6ajff9K9VgiCEDV7mJEx8dvA8SXV53LMqy78WCYIQVnjnSRQMkUQcf62Z4GdzBEEINwLeu0HbUZ7dfSJQpxEEIcAErHfj284+yz/SZ7I8UCcRBCHgBK4L9NhR6voDVrsgCEHCK5EoXdBHLNFcrFYptHQZ82Khv+4of/DSOEEQQo9HOYmKyjpKpgPE8eWeKZQ7K5TzKNvW5RMLtP5+C7uO+cFKQRBChpeDqQRBGC/IsGxBEFQRkRAEQRURCUEQVBkX3wIVgsfqJ0o0lXvv/UMBtkTwFyISgt95+1//WXX/L37ysyBZIvgDCTcEQVBFREIQBFW8DDfmklD+BKn6kS09hzdiCOt5XCM2h9zW+RmUrs6m/3gVH4ckNLcsGnRvYx7zdypm8hb0UvvsDY6ucjFQzhse7OPrsnZigf76Wdz3qkS4Yw2v7phu/ROkco7zL7zFkL8t8hhr4+87yZnXPw21Mf6nJI8NhTE0vPcFJ2r9U2VFZQMPkMkrOx2m+lfHc/SHdZQcBPwiFGaOlLVD/SxmiDiMWby4c48wKQ16DoeDQHhCPT0V9fSE2owQU7q5mZLpqRxa5fybKeWb8pj6bgMllXrKfV2a8AkTWdzFQRGIMY3nOYkZKUQFwBAhCBT0sm5eH82fqXkJEyh9L5P+6ef57Mkg2iaELX6WeOeuv279LjLjznG+wuJ96NbvIpOTnDk7g9ziVGupQQxvvUTPBYcqlzyvKAMD9e/T9FE9zFhD9pp7iLbt0C8m95XFw+VG8g6O+RMX5wEif7qNmXMVEtju5Dq02u0WM70dMSypXEie7YV9sYHd27oAmPVSEUVTR0rnrS4ib7X1h6mJDze10mUrRwO7G6ewoTB5uG5n4Unpgj5ijZnsO+DGtOp4jv6whZJFvZQekK+0jXc0isToRGV08S4Siq0/jCMCoJm0xeTGneP8C68yZKv/p2swKuqxNVplojHyp8+TMKOengtv0fSCwjaXOQlFmLHkeXKL452ao1u/i8w0Ay0vvIoJgEdIfWUxueUp9temwW5txJC3eiEdx6vYfQhrMjOPlSWWZObZbVWcBW05ial5bJjcxIdlDXRhFZ6SDM7WWoTEwk0KcvqgJ0VToy//JpWSFTfI9OiahNsRjSKhaGjWN/igrz0EdsJSj/HCSpgbSyRYts1YQ9rcKAbq37c7z9BHr/o/rzBjDXelQc9hm0AAfIrh8AwSiqejn8GIp+DObg/oUPZu1Lby1dJsinKSQdG0NaHwLMDM2RYzebmxJNnVdIMkPTR/rjHP0Hon/bQw58kp4M7zcMH2ey9DWzZbvTtcCBPCd5zE1FiiGaTv6/ogncvANUfRO3GBHqKYONXpUX6nu9cMk2NIdl/UcwqGSApEvU7Yvr2BCx80MPeveczYGhOkswqBInxFYhySFB/ABlUdSbfHB8XR3er5qbZuzWPG43nU39vAhX19PO15FUIYEb4icbGfgWC9xS/2M0Aqk5Y4bF8ygwQGuX4xCDYQQ/Jk4KrZ02BDI3fSbYSs2Sb3RQEybrhfotANW/96F+iHkC+zjG38LBL13OgD4lKItG6xJAS9qOrCW1xuh4TibSTMGNlsSVw6OWfaDLzu1b/wNX1GSCh+XlHHI6QWp0J7rRc9F56TXJZHns5MwzEHiejo5xoxTJ/rq5cxgerGOJhupEJD6YrZBjDeSYuPZxXGPn4f5WJ6/SQ9ryxm5iu7AEuX5fkrK5k5w82BTuvayPmfbmPmml3YOhwH6t+n6YJjufcxlD9BpvWcoOwCtfRSJCjKp9rqG+7itCRmb6zfZVfHQP37nPkoADmRWjP9q2FaYREbCm0bu6gqa7D0aNiVbWX/tFg2FC5kw17rNrtEpXb218Sxbl4LyzYnUu442lJJQS/LpkPzZ9L9Kcgal+OO0s3NvDAvmkMuh1379jHo1U+UjEwVf6KTC8Vw8PEUux6OX/zkZ7KexBgifHMSQkDYvzONL40GSg5echp2VFQ28IA+lUP++Fr83yLp5zLLn7/le11CyBCRGHdMoPSpPL40Gljm+DX4gl6WTU9V8TI85E9x3Hf4LmLnnuXCBw18LWIxJpGZN+OSCZQ+NW/05up45vvQm+GU91OY8X6KnysVgol4EoIgqCKehOB3ZA3L2wtNvRvT06by35e7GBoaWytICILgOxJuCIKgioiEIAiqiEgIgqCKJC49oeAdFhQpJqJ0HKbmzV2uy/tIctlCHssdmbNx7cwX7N9rDtj5HHnqe//EjzjMI39R/9iOI8/NWsLymBbe+qqNj92WTuLNxbNJY4DTX9Xy4oA3li7g5QVlxDf/nA2BmR03rhFPwhOqn6amvIia8jdo1ziZ0he69n7B7rIqdpc10BH409mxKGMfP0pp43fOBCJxNkcWz+e30aN3hYYaftPcRmbuP7E7IItxjG9EJITRJFfwfBbU1ZTzbsBP1s0zJ0/w0ElvvQgrXeW82jxAZm4FT/nNNgFEJIRR/IzduemYmw/wm+BFNn7h89YD1JnT+dH3ZJyGPwlpTiL+mSpyptl+mWh/78cYmpUlNpJTUczI0rUOZbIqyV+dTfd7H0DJWtJsc5JG5QpKSN2s2A9gOs3pnZsYVGyKWvkJ+fmKQl7nHBzP5+za/EhJnmKlbJxPJbd+NWzSqIMdpqgn30smbfyutWZUyedmLWG5Yg28/PuXcMT2Y8AhB2Ee4OPE2RyZbTugmz+c/IbXho+25SJwsd9GNL+9fz75ytDG8VzD1PCb5v/Dp7mLeLnln52L3NIy9jycBm1HeXZ3WH9yLmwIkUjYGlE7jeVP02vb9kwlUc3WhptVSf7qfDj9BjXW1WKjVn5C/uoqdFVFNA7PMdCRtnotvVVF1FRjTS4Wk1Owa7hM/DNrSeM0p8vtRUGJRbDaaSz/sdUei0At2DxllJioYzkuSmE3Be+wYPUnEAChsCQ3oeG9Kutq2pbVsh/bGzvS+K0CwZkv2G1NfFqW7B+9hsVTKelgbsCZma+dPWFpxImzOTI7Rj3RmDSbIzEtvHXyGz62NvTl96fTPty4LWEGwMr0+azJcF7Nc7Pmk08Lb53UkgQFuv5KC8XExwBjzBMKV0ISbkStfJw0nYn292wCAXAIw5sjjTG+MJ8o02kaFR/LHPz4A9pNED9zo119vUrRqD5LLxCVVGLdUEJUHNB3yXVDz6okbRr0Vint2UVjVTvoson3YP21qJXfJ97BbqoP027SkZRf4vpAr0jm+7kxXDvToFhu38yJQ01cI5mZttNNi2USZv5WP9JqzjZ2ATEkz1fWt4CpOjBf/oLPfTXN7m0/wJ87ByBaj2eLlEWTEoPFK9F8zN/oNUNmiouQ49henn1ui3gRHhASTyIqQQem0/S6fKtaGvZgU61Dwz5Eb9PjpGVPIQo0vt0PYagpJq2omAUVxU7DDFLjiaKddscZkNVn6S0qRpcKTl+tTohK0IEun/yKqtE7E7xZx0+F+THEOjR+AGq7+FtJNtOTrK/Tjn6ukWxZAq/W6knkJIOpibN23/KYTiDX4vWcAV5s6ebI7NkcWYxKmCEEkvExTqL6aUsoYg1hLA1YGer4GWdCFEpsy+XlKpbAo4uqMscl8Cxv4bCa2H3lGx46CUSnc+j+TNYszmSNy/zFCGbT34Jl4W1PSMKNwR4T6OJVvil6iME+iMqe71CmhPhsnXrooEbzJk6XF1Hz3mkGSSOpwLrd0Gv/20bBLOIxYTJoP4X7a/MjtWb6nS2SOz+Z6Tro77Z4Dcll2UwzNfFhWZV13IVl7MWo9TSp4aIJYu5ayKJg2O8JA22UnDzBQ1+1YCKJexJdFbR4Q53m0YlXwTtCIxIf/5Fe0sjZXKloTNbEpfVX7/l20OWTs3Ikjh/OZRz3cZRjajxRysbfXEu3CeKL3lH0pGwkpygNOv7oUbLR+bW5opBntldSsb2SZxa7LeyELs5fhEm5eSwZzi3EsKQkm0mmJv6oXEZSF6vp4zzvdrZBzAwWqYUdA0ZMRJOdFILRVNF6dAzQ6yphmnwvmQzQ6yppubSMPa/tYM+vH+XuQNl4mxGicGMXjeXtpG5eq4jdLd2Ewx5C9dPUGCrJX72WBflrrRu9CREcu1FHzjXS+A9h2HmIwWeqyFHkEgaVPRQ46SLVWfMcdvXtorEcciqKHfISTrpBs1OIU7Hc8aPBDIcLI70SZ7dV0V22kMeUHxRWfHgYoGtvAw2VCynaW0SRwznsPjUIw70D8zJ/Bq6GYw+0UfKNniOz53PE1ivhab7AGj6M/DWjWb54CcsBU2stJW0DjO4mBVSHby/g5ax06DzseoxHRy/9pBEbm8WCHPi2UavB4xdZT2IcMOulIoomjx474aoblOQKPs1Noq5m3ZgaULUoYx/PZ3Xzu2PqI0WXb9jBinQjdfu2c0BEwi0y4vK2x/plMFfbTf2jP//XVc7vOqOZt2AfL4dVb4cKyRU8nxVNyxk3Q8lzHqUgHWirEYHQiHgS44JkVu7NY5rjZoewxBFvZ4EGHy2zQJew8bVlZAD9dW/z0geBGv56+yEiIQiCKhJuCIKgioiEIAiqiEgIgqBKxOR490v5LC54QFNlv/u//v78kyAIoUbzYKp/PXpUdf9Pli3z2Rhh7JORnkpr2+hx7K62e1KHP+vxtK7xjIQbgt/ISE+1+3+oaW0zhI0tY5nxMQtUCBiOjdDXN7Oj0ATqTS9ehHY8EonyLf/Jj6YCZPK7f5hORWBsEsYQyobm7K3t2Bi1NE5fGq8rG7SUFdFwjkciUbHjB1RgFYudUbRuTuH9ABkW7kTG30Wq/g6u9xi45Li8vi6RjIQ7uWXsoqP3Zkjs08YEElKTiY3A+XUosF0vt8wYDFfxdlidLQTwJG/h2JiVvx3Lj8mGHjmZaVMmMnDpMj1DjttjuOXm3gQar8KNiuOzKHyyiwfvT+H9r/xt0thgqLeH/qhkYhMS0ZuuYBzeM4GESXfCLTOdYSwQlkYP/cYboL/TTekYEvR3ON3jqgGrNVZnQmH77ertbvu/8ji1fIOzfb4mVMcrkpPwmpv0XLtBbMKdTI6fgNEmCLpJxEZ8R/8l79+2AUeXSGrUdQxtVxnSJRLrprg+ZTITb5m5MjiRRIdFMtRCCU8aoFIM/NVwXYVCIgyeISLhC6YrXIlJJVE/CX3vFYw2L+L6VXu3UeHW27B37637b12ltXNkbrY+JZXECN/ce1d2t2p1XyMnM3kiXO+5yo3Iu1wW87QXQRqp5+hTUknkKq3mKDISbN7fd/Q7hikwHPLaGB36qj2Tln3Rg1cZiJosIuErxj4zk6fEWLyJIasX0a1chCGGKemTmXj9Kq0G63ZdIhkJqUyLHAM5i6QYIq5fpcMEkfHuj1CGDZ6MdfAmbNFiSzAYztfgrDH6mYmTyYgwY2i7wpCtoSdNxqh4kTjLl0XGJ5IQecUqJu6eScumCP1kInsMXo6T+CqO86Zu/lfhNV8u9/Zg6Cqdxu+I0CcwbdKd3DL22Kl6ZLyeidzgisJDwHSFK9chIiqGyOBbrB1b6NSnvvKMstF7Gy60thmG/1P+Vp5D2T2qRQAc6wwIusRhgQCI0CczRadS3lfsEsc3MQ5+BxERDPsMkZNJ0d/BLWOXXbJzqPfK8HOp+Zm8ZabH5PVgqkjWbf4Br/W18/U//icn14Vt9B0UhnqNXOcOIiJucNXhLXLnhDvg+qAisWnBaL5hf3PDjhimJIwWPV/xNh+gJiChJDJytDMeETkhBJZYiYwggu8YMLn2ZjQ/k7duMoTXOYlrHPrHr0n8y4Pc9w/fA+An43pUthnT9clMZPQffqwy/LZx4zo7a/TOGrAvjdrVse7qDEa4MTR0C7Dv+bk1FM4hpOd4JxL3XyeRJM7Xh7WzHBbcuPkd6KPQY7YTEH2MpZv0RsgsU2MC+qg7gDtITE/FfvX6GFLTY4bdXk8av6dehK+9EK56N/zqhZiuYIi0z0l4N6bhDiIjwS5DHRlBBDe46kl9Q7e4xZ2j61Kg5ZlUtmxJXAaYIdN1buljSEyJwdg5kiRKtPYY2GLLoVtAxARs91afkkriRODW6DqHE2XX7XtD/MdNegwGepydN+q6V70twRaIYDLUe5lWX77yNHSVq9djSJw0mUiT7W9rCfe4ftUz79RWV8JdJAxdVuQhLON5eoa0PJP24ZKIRKAZukpH202mpE8mI922Iu139F8y2MX6xs6r6NInW97SWN5IhpsJpDr5eMewiztRT0Kk2Yucgal33aMAAAe5SURBVDW7rdgyMSGVjAR8HlHpiLe9FP4SCH/MSg0Gxk4DpKQO33+wPAOtXvSUGDsN3Ii/i9QpqcNjYG4Zu+iw3VSNz6QNEQk/Yew0qCi+mUtt7t74zspcptVZUdM1+iclExtxC++WHdViz2iGel3Y4wRfujD92Xhd9bb4c9CWv1B/hpzvd+XFuPdu1J4Be0/SK5F4Ym4XevQYxumQ7JCjm0RsBNwyXgurRKmywQWq8Xk6glPtmHASiHDGy1mgSfz5gMwCDT4jYYK7CVmC4C+8mgUqhArvwgRB8AVZmUoQBFVEJARBUEVzuCEL3QrC+ETTZ/4EQRi/SLgh+I3jry8PtQlCAJDBVIJHOBOCwvV/UC2vtl8If0QkBI9wbPC+eA/eHCuCE3z8LBIlpG5eS1rfYWre3KXxmI3kVBQTj4n2936ModmD02VVkr86n8GqIhpvwy8MJpct5LHckbH81858wf69DuMkSvLYUKj4VOPFBnZv63JT8032v9vAvY15zN85Mpln1doHWfe9GEx/+RN/fyqFf//5DHSmC+x7sYWDXtjvzovwS4O/P1NhZyfzf/sgc3RmTv3Tn/ilYkRwRWUdy67YX6+gjfGTkyh4hwUVn5CaFWpDtNO19wt2l1Wxu6yBDleFDjVYy3xBg8YRmBWVDTxAJvscGszBbksFvd1m+MqMLxMbgxZm2Oy8auYgZi5fdV6s/D8yYV4DtZtvr7UegkEYhBu7aCzX6nUIvlK6uZmS6akcWhXPfi0HXDWP8iLchQmhz0OYuOw4r6g6nvkZNzi3op39BVmU3oaeZ6AIA5EQgkZBL+vm9dH8WRblbgub6DFBmou9AQ8jvKStzwxTXew8MIVDs+soWd1LabVGkRQ8FQlrzkGx0Gevk3zAYE87USs/IT/fVrCdxvKnh91X+304LaMdEyaDg10dIzmR+GeqyJk2UjptddXIg286zemdmxi0XldS0xs08rhLuz3CIVcwOp8Qw5LKheQp/gxOcw5+pHRBH7HGTPYdcFHg305T+G+2H2Z++aK2xq70LNS8DGfi4Uny0rn4dFKq2H7wjT+p5k/K/yOTZc+2sPLJePY7/TssYeNry8ignc+e24ukST0SCWuCseMwNTut4UHBOywoqiI/6Q1Of3xouGRU/lryOw5TU74Lm7DkPLNxuOEOfvxjaj4eqdkiGt5ego601WvprSqiphprMrOYnIJdNFZD75tF1AzbGq+aHLW323K9Sru1Yks4dhyvwvZnSS7LY8n8Bk7UWn7PeikPDlWx2/rbIioLWVkycox/uUlBTh/0pPj9DWprvLYww5NwI+heR7Wev66Ge++6CUgSUwuaE5dRK79PPO00KhtM9dM0dkBU9nzsFlDqUPZuHMJQ0w7TZqHhsw1eYefNNG+ivQPiZ270vCI7u3fR3QHETcHJ4lCumZ/Bw7kxXDvzhV1j79o7IhAAZ7d9YfebQ5foAGKTYggMN0jSQ/M3/lnv/fjry4f/c8QmFOHJBC72QGyOkVKn+0+w67ktPCtexDCaPYmoBB10/HGU6917vh2K4okCBl0dbOhlkGyisgBPuji9ZLDHBNlT1G0KFNNimYSZhno3YcP8DEpXZzPJYXPAvmRSMEQS0O2HqpRv//AVA8FfBKcLNDXes7exj0QlBPLrKH7AJhAXbd2Xbro5/UF1pF8EQivh7U0APZGSuNSIZpEY7DE5DRniZ6aBqVf1jR2VFA/0MhgELwJKiIoD+i4F34sA6OjnGjHET1MpY/M2jrkb9ORP7qTbCFmzg7ecVXgKxU2mJkD/lfD9LFK4oTncGDzdxGB+vn0ir+AdcqZBb9Um1w0yq5KcfB2Dpz/wrpcg+zE2PzUHHUbOvPsbDjapF49a+ThpOhPthxySjYZeBkkjKb8EQ7NvmcHMVS9TOkcPxlPs3/EhLcqdta18tTSbosKFLOkYyTskl+Uxq96al+jo5xrJFiGpBUhm5d48phHAcIMJVDfG8cA8IxXoNHSBeo8ycekqkemLePiU7Cwwcq8eui+7SlraejeM1O3bzoFG7091u6C9d6N5E6fLLRn/BRXF1o0m2t8rUvQWHGKwby1MU5Zx3k2qmanxuAwemi8xSD7xRVUsKLJtdNFt2byJ01XvsKBoLQvy11rNt3WBesa0BL3q/rPbquguW8hjq4vIW23Zdu3MF+y3JSprW/n93Ck8VljEhkLLpo7jX9AwfyHTFfXMeqmIImWff+5CNuwF6KKqrIGzjB66jS7PWsZMw3v2ydH9NXGsm9fCss2JlPswPFmtF8PZNmdlQzWWouKHLerdwLTT0w8ZsXrunpcFjUFxf8OasFhPImrlJ+RnN3nVYAXPKN3czAvzojm0aopP3oRWgQgrnrzEuRUDfLnHzYjLpWXseTiN/rq3eekDEYkQzN3YSM7mSkUicyNp+ToGm2pFIILA/p1pfGk0UHLwkk+LGjsTg7AWiIJealcY6K9LczMkO4snv58GtFMtAgGEypMoeIcFRSMDfgdP2w/GEgKN81mgtzNaZoEu37CDFelA/2n2/Opf+DZ45oU1YRFuCIIQvoyfqeKCIHiFiIQgCKqISAiCoIqIhCAIqohICIKgioiEIAiqiEgIgqCKiIQgCKqISAiCoIqIhCAIqvx/bqLhUii4JXMAAAAASUVORK5CYII=;" parent="1" vertex="1">
                    <mxGeometry x="100" y="60" width="193.61" height="160" as="geometry"/>
                </mxCell>
                <mxCell id="3" value="" style="shape=image;verticalLabelPosition=bottom;labelBackgroundColor=default;verticalAlign=top;aspect=fixed;imageAspect=0;image=data:image/png,iVBORw0KGgoAAAANSUhEUgAAAJoAAAAiCAYAAACnZsAPAAAEeklEQVR4nO2aP0wbVxzHv1exVeoSLDEQCeM/6VrLKq0nE7kiMi1CCjhSlxYToyrq0qHtiTFNjIOidumEBepWsB0pitqojlC5oXJCgszAUrCNaW0pFme3Qo2Ubq/DceRs35l3Bs5u+H2kk6179zv/eP7e9/d7DwsH/7xgIAhO/q5V24oTSGiEFbzR6QSI80HP9k6h0zkQ5wCBMUalkzhzqHQSlkBCIyyBhEZYAgmNsAQSGmEJJLRTZl0QdF/POz2dToAPGSthH0R3AkXxnU4n05IhxrAuCBjS2TXSO3+cEPXu83+E29HuP/iJ+6bZmAv2QfWIYKXyakxORRBOyaaSVBl29rcVZxY5FVFyj23Wna/9eBXrwm38yXkfrbCMxDfEWMtDoYLtkID1bx7Xxarz3O58Wgrj5JPpz9jc/LdMlqstr9tPXmcDc1mjUbY85WS3n/F+agd4NscGphJsX2foj5tgT25mDEOfHE6n9lU9TkaGbQFs67HO0PMEmzLIt5sw1aP9vr2D2N3vWrpbKS/pOo/y9PkgSkA85Kp3jEoS4XASWdVJBl2IbmjjXLCHk6h7bjdisMc2Ne6pdU4ZK2FjV22FvFfAcNAPW9NIBS+3gDc/eF83TnWsxlKodbS2+7VyEf/iFt56Tyff3x4Buvl2F6Z7tGq1hvsPfka19hfGPxpFb++FunFPYBprIR/sD6N4ujR5NAEeMYfip0mEZ4E7mvMAgHIBa9IiEMyguGuDnIrg6z0Z6JeQCxzG+QooAfVxCyF8P6/EZGMu/FIG0Kf0c+lgBsUlmyJiXwGuPp6/TsavDyU4b+h9bX24lODrl7R9mlHJVDESX11M/8fwGtyilJfgDHS7zE6w6qxWa00iAwB4RRR3c7jnnsW7GmcCoAjK7Wx6+uS9AjCTwNKEMmKbiCvv+yZxzXsYNzMCT2OMP4o7EzYAMnI7fjj6AVQkpKGe14/VQ3HGWSCaw6zXzEwo8IjKKM64Nzsej5gAQs39ZLdhWmi9vRcwPjYK8csvWl7nEXN4Ou9HfPXVBMh7Bd2yWspLiASMV5N6caW8hMgN1RnLKEgOxbUaxJxdXeRaRHjEHIoJB8QfuvsLq2cT0cE0ruzmun41bkpob19y427sFsbHPuS4WilD2i+5lJd0rztyIwNKeQnOAaUMRlNyc0wlj7zfgYuNd05FcHUBSqyFaJ1Nr287NTbSiHO4dTfA3aONj40eI7DDvS6NlobnM0flEND0b18B8Ks9nOJGV1r0UBedfsRDLsQxjXu7k0AlibTkwOdqTLmANfeI4mLeEURCIdgXAMxEEfMD4NwVya4uIhIQ+S5uoLFstiqjPMLjKZ9GFaIr6fSy90wxtfTfZ8tT19nyc/Mf07h9cfLtDB7az7cTvHb/gqrbLPY9wkh0knPpb8PlICD6zDfWje5z1rv56lZROhjFNa7VdOehX9gSlvDaORrRnZDQCEvoOTg46HQOxDmAejTCEqh0EpZAQiMsgYRGWEJLoQn0e3filCBHIyyBhEZYAgmNsIT/ANnOWN56yHRRAAAAAElFTkSuQmCC;" parent="1" vertex="1">
                    <mxGeometry x="391.5" y="186" width="154" height="34" as="geometry"/>
                </mxCell>
                <mxCell id="7" style="edgeStyle=none;html=1;exitX=1;exitY=0.5;exitDx=0;exitDy=0;entryX=0;entryY=0.5;entryDx=0;entryDy=0;" parent="1" source="5" target="6" edge="1">
                    <mxGeometry relative="1" as="geometry"/>
                </mxCell>
                <mxCell id="14" style="edgeStyle=none;html=1;exitX=0.5;exitY=1;exitDx=0;exitDy=0;entryX=0.5;entryY=0;entryDx=0;entryDy=0;" parent="1" source="5" target="9" edge="1">
                    <mxGeometry relative="1" as="geometry"/>
                </mxCell>
                <mxCell id="5" value="" style="shape=image;verticalLabelPosition=bottom;labelBackgroundColor=default;verticalAlign=top;aspect=fixed;imageAspect=0;image=data:image/png,iVBORw0KGgoAAAANSUhEUgAAAZoAAAEHCAYAAACX/oD+AAAgAElEQVR4nO3de3BU55nn8W/WQrb6IkC3NpaRkBAXDwoIQrh4Yy4jhM3Eyc4OUMl4UmNDFgxVdpUvg4ntkqcmKtuxlRBX2VX4khh7K/FmCzwzmyUFNiZgPGuMo+EWE8AIyRIoWFdA3S1AyJX9o7ul062+9zmtC79Plcvo9Dnvebv79Puc932fc87XppfP/QsiIiIW+S9DXQERERndFGhERMRSCjQiImIpBRoREbGUAo2IiFhKgSaKxZUr4lpmRrmpbG/8O9my071duss0g5n1SuQ7G67HoUi8Moa6AiNd6I/1w727Ym7z4d5dLK5cEde6iYq3bCv2H6vhind/yX4+iTSckcpO5vtMlRnHw3A7DkWMFGhMEPihJnrmGe21kfDjD22kjJ9DaP2TOStP9PMJtyyZhjTc9xn491AEonjdqMehDH8mBhoXMyrnwPFdnGiPvFbe11cwg8N8+MdW83ZtgdAGKlyjk8gZeqL7jrdeqewv2hBcomXF2k+8gWE4ilR/M4eeovWwhuNxKJII0wKNrWQqed7P+UOUIINtMiUFHhoPDu8gYxT4oUc7W4+0PNnhn3i2iSdIQPxn+YnW1bi+WcMvw+nMOvCeEvm+ja/Fu49QsQLOcDsOReJhUqBxkOdy0NPaSk+UtWyu27B5/0xHtJWGgUjDJIlK5ocabRtjfULPctM5N5PI55Po/qzuOSQq8LmGE6lHEe+JQjzflfH/yTL7OBRJlDmBJn8qJfZWTjR6oqzkoqTUQcfxs1GD0XAQ7qwx2pBFrEbDjElqs5hRfrggF02iQzyJMnuuJ9LcUzL7TsVoPg7lxmJKoMm71QVth+mItlJ+IXm0Rp2/ibztHBbPhBN7W3BVziHPv7in4SP+EBTcHBQtuIsSe+BvD40HP6K5B6LPIfm2c7WGljcg2o85Vm/CjElqY68lWVY3yNG2S2U4KZZYjWsyyQDR5kbiZcWc11AfhyLJSD3Q2CZTUgAdx6PNuzgomhxHMIrKxYxKO40Hd3GiB2wld/HN0tkUtQYHElvDR3wYCBb5c1i88C7oDzZgczigPTSY2HHaocczsDyZIR+rfrRmlRtPQ5PIHFG08lLJ9hoOQt9DMvMxZsxhDafjUCRZKQca37zL59F7KjYXLruHxqjBKBZj7wR6Wv9MT+lUnHagx5CMYOyRtH9Oo/cuXC4HzY1e3F6wBapUchffdP2ZP3xylh6bAxseWr2+10LHxkN7EskMBaXy4x9ujUa4uYNUGtJEDUViwFAYbsehSLJSDDS+eZeehuhJAHmTp2Lzfm5pEoDN4QD7VL5ZOXXwiw470EqPF2wO37hanssB9tvIs52lGQAvPf76hTsrNDvDKlBWqJGQHRTPWbNxnXjWjddQNPpWzNEk+hmG1mW4HYci0aQWaALzLjGSAFwFpCcJwPu5r4cS4eUejwdcDmyAk8850XAbJS4HzZ6x/T2dgHScJVr9Y45ncng49bKGS3pzrNTleBMFzNjvaDgORVK615kvCaAlriSA1mSSABLQ4/GAfXDACF7H218nW2srHa1/BpeLPIcdvJcHBajFlSviOmMd7ePi0T4D42cUrhFOZo4h9L90i5YMEGn4KpbA5xQ63BhviriOQxnJku/RxHXxpS8JoKfhoxSSAOLT0/g5HaVzmLFgcuRejfcyPfbbmDEZWo97oAdauYsSlwe8nv5tIo19J5rRE7qd2Y1AOieZQ7cNGIr3nQ7xDFFFe3+hgSHacRMtsSLctsPtOBSJJelAE9fFl/4kgNbWaENrZmnlxN7DzKicEzJPY0gi6PHQg4M8AvNFHjpaPb55pkAmANYNhyRyNpzsEEi8Z8ixGr549hMtWy3c+443m80MVjam8ZSbyHuO9JmP1ONQJNTXppfP/Uvimw2kEke67gT89zWzR583GSlipfMmso0Z9Uim7GSylBIVbR+RzvzjrU+i9U/2M4rUm0lnMEh0nXQfhyKJSC7Q9F9AGe26mPhusikiIqNbkj0aERGR+OgJmyIiYikFGhERsZQCjYiIWEqBRkRELKVAIyIillKgERERSynQiIiIpRRoRETEUiY8ynkOudU/oNA5sKRz12O07Eu9ZOsM1Hn419Vq19n25jH+6vQs5r8wZmDxoi4OPXyN91dPoNqsXS3q4tDDDWQD3XUh+xORUSvlQON46AcUcpJTT7xBrxk1Sok/gFzcz/FXfjvUlYmTnaW1dzLLMfiVc3v38O4Oa/deU3uMBZTyYmijfyCH979Tx6rtgCnBxsPOhxugbhZ3KMCI3FBSDDTfZWwRdO4aDkEmEYfprDlM51BXw+j8MV56ti2tu1yz+SyrJhWyY3UO28K8Xr1pFre/eYxVtU6qN4WJhIm4381kCtmhICNyw0ltjmaKiyyTKiJptqiLDXMvcnZntN7KGNa8VUr3pFPsvD+NdRORUcWEOZpIwg9jOR7aQun4k5yq8fWCHA9toZT9HD8xhZkrCv1rXaHljafpPBNS5NLHDetAz+FfUf+bwzBlHWXr7hh4uqZzCTNfXNK/3sA8TOh8UoT9AJnff5bpcwxhtDnM+4i33iYp2Hgn9820DywI1wtaNYtHKgsG/vbU886mRkL7SmsWXiTbXcqrb8fY6YEc3v9OA6sWd7Hm7fA9HxGRaJIINIMn/20rtpAbeFSHeyCIxK1oCTPHn+TUEz+jN1D+99fhNpQTaPiNk/eZ33+c3CmH6TzzBvVPGOoWcY7GMGS29HFmrsgJWx3HQ1soLWqh4Ymf4XvazncpfHEJM6tdwe8tjnqbZcbTVVTd3saejR9zAoACVm6dxSO1A4HEF4jg2Ft72HcIAvM/923NZs/GY/7tAK6zaNpF6HTFFTiqPytk1b3XKDX5PYnIjSGJQGNorP09iSupZm4FBafDuM+shDnZZIJv2ZR1FM3Joufwr4L20/ubn5k/zzJlHbcWQeeuQJAB+C0tu6aQu2ISzikM9Fhi1TsRt8/ika3GBW0DwWF+CfNuh3N7jcGijXf3tvFI5QRmzG+k7VABd820c/n4x/4gA+Bl3456Jj1QxvRVcKI/seAa+U44+2Gc8y6NN9NNA7PvnwCxekAR1JS3wBfTzctgE5ERw8KhMxPdno2NK7T85+E07auFL0MD574zdK5Ywi23A1YMjUVLBpiYzVja+DQ0A23HBc5VziJnIoCdbLx8cdgbvM6hNr5YVcakfDvgf21RL/lAOp5HV1Nbx6pJcHbnXO5IMkiJyMimCzZvRAcykwgy42lvTHxX1ZvmcsfquRwpr+Pkm12sSbwIERnhRkagOd9ND1m+3kRa9lXI2KUhy5dOIZcrXD2fhjqEOtfNZQqYvipk+aoJTMRL1zngkJdu7EyaYw9eZ34BkxzQ3W7s6dxMuxsml3uIS8k1srFx/kDyb6H6s0Jwap5H5EZkYaA5zLWLwHgXmf4lvkn2JIo68wZfNkPuimfJnTKw2JcMEGafRVNI+qqPM//JRTfkrnjcUMZ3KVxRCM2HLMsoi+pQG194YGLlLGb0LyxgZWUBnK/3z8m0ceo8jJ05i6XzA+vYWbqqjLGeej4KGnYbw4HT42GSm5o4dl9T3gLum2kw6/2IyA3F0jkazyv76XxxCdNf3AL40pFPdaxk+pQYG4Yt6zFOff9Zpq/bQiCZuOfwr6g/E7rer2ip/gGl/n2CMb3Zlz2Wa1i/MFBef/qyL9nh2kNbgsroOfwrjv8mDXNEYXnZt2kPbU9XUbW1iir/0svHP+alrQM9lRPP7qF9453c90AVsx7wL4ww97Pt4Hg2zG1g+eY8qqNdRLmoi+WT4OxOpTaLSHK+Nr187l+GuhIyNNZsPssTc23siHiLGd990BZ0TueOlO8McIGT9xJlXyIyWo2MORqxxLYXivjE3cKq7RfCDqHV1B5jgbOQHakGGfCnSLewfPP11MsSkRFFgeaGNoY1a2fxiTtMAFjUxfJJheb1QA7kMH9nIdlzj3Fyex2HFHBEbhgaOhMREUupRyMiIpZSoBEREUslHGhy8/LIyBgZd64REZGhpx6NiIhYSoFGREQspUAjIiKW0mRLshb9koVVhhu3ndvFwde3RF4/RaFP17x8/GO2bfVG2cJca7/+P/lbdvHdP/6vhLZ7dMZS7rY38ManTbwbc+18Xl9SThE9HP30ED/qSaamC3lm4UZyzv4jj0R46oKIpJd6NMk68EMOVldxsPo1muO8CXIq2rZ+zEsb9/DSxmOcs353QRaXvMrfupr493BBJq+c3Uvm8xPb4JeGxkF+fLaJ0pn/k5cKYq8tItZToJHoCmp4fDLUHazmTct31s76/fu4Z3+yvRm/tmp+draH0pk1rDWtbiKSLAUaieLveWlmMd6zb/Pj9I3SmeLDxrep8xbzt1//+6GuisgNb9jM0eSs38O0iYG/PDS/9d9pOWtc4zGm1awghwjrTK6l4oEy2t/6Nax6kKLAfSAHzZ2sonCz4XUAz1GOvrCJK4ZFWSv/jYoKw0pJz8GE7i/cezPRqlk8UmkYM/LU886mRoKmK+aXsOaBMsYO2riNPRuPcSLwZ8FfUUoT/954cNCaj85Yyt35A39XzFvK7sAfPSFzMt4e3s0rZ3d5YIN23tv/GT/v3zowN0OE1wNs/GTefCqMw3Sh++p3kB+f/Rt+O3MxzzT8r/CBctlGXv52ETS9z8MvhT67W0TMMgwCTaAhbuZ09Q/pCixbX0vWWX/jP7mWigcq4OhrHHzX9wSvrJX/RsUDe3DsqeJ0/5MfHRQ98CBde6o4eAD/hP0Kpi3a0r9OzvoHKeIoR6uDA4uRL+g1c7r6v/vr4wtyCzdPGBSQovNtl2WoN4t+ycIH/g0sCDa+hAE49tYe/8PQ7CytvZP7tmYPBBB/kMHwLJsZT1dRdXtIkAHWuorBe4xw1fz5iX2+QJBXzu5ye/TJ+/xydtsbeGP/Z7zrDxZ3zyumuT9A+IbMAFYWz2ddSfhiHp0xnwoaeGN/PIkFQNufaGAFOXZghPXIREaTIR86y1r5DxQ5PDS/FQgyADtoeX2gQc+prCDLc5TT7w48JvLKu7+m2QM50x8LKq/LGHgOnKALyMoPPAN5FVnjgYsXIgeLybUUTYSuPcb6bOH0nmZwlJEzOZH3dhc5IfXmwC6aPQ7yK0Kfy5yqAu6aaefy8WP+IAPgZd+O+uDHQE/MZixevjhseGDa6TbATsF8Y3kLud0B3i8/5sNUqxbU6+jhD609YHOS2MNWbbjs+HpHcW/zBV1eKHVFGD77YCsPP/qkejMiFhvyHk1WrgM8R+mKeHbvCw5X6g+FBIcddNX/A0VlE8iCOHsZO2g5uIKiqhUsrFkRdsiMwhyyaKb5QMimB07QVbUCRyGEPcUPIyvXAY4KKmr2DH4xN5lnWkcx3052SAABfI+BXlXGpHz/af25bi5TwKQ5djjk79FMKwBPPScOGTec5OsJDBs9/Kihnd3l5exeQpQhMxEZboY80KTdgR/6htX8w3G+IGActjNZuGA2lA556X4AJs68k0e2Bha2sWdjyDyOvzfgSnsFo+j4jHv2A7ZidswrZd2SUtZFnM8Z4PV8ka4aikgYQz50dqXTA44csiKusYMrFyGrbH7IOqvIKXNEHwaL5uwmjlZXcfCto1yhiPxF/uUtXcF/ByyaQQ4ePC3x7yL2ezPRIS/d2H09FaP5BUxyQHe7r/dSsLGMiZ563tm4x39dju/anBODCjzIeQ/Yb72TxemofyJ6mli1fx/3fNqAh3zuyIu0oq9X1uodnMwgIukz9IHm3Y/ooohpm2sNDbI/GcD/V9epZnBUMG3lwLxG/9zO3hSvxi/MIcsYQM4eot0DOVW/NGS4Pca0qiI491FCE/jh31sklax/rpaa52pZvyTB9wBAG6fOw9iZs1jaP9diZ+mqMsZ66vnIME2EI5v8MCWEerO1CexTWBxtCK3HjQcbZflDcMWmzYmDHroiJSEU/BWl9NAVKRFg2UZe/vnzvPwv32OqVXUUkeEwdLaF09XNFG5+0DCX4UsB7u+pHPghB1tqqXjgQRZWPOhfmMxwV2iK9MC+BgLIDlpe2MGV9XuYZphbuWLMHCNM+rPDP+8TVN4WTlfDtJoVIfM0YVKcy1yMj1JzX2aYYUH/0NdAttiJZ/fQvvFO7nugilkP+Nc7f4yXnh0YFGvbeoxjtXdStbWKqpB9nNu7B2PeQiBra27p30OkW8/0NLHqMye7y+ezO5Atluj8iX8obODTtHH3kqXcDXgaD7GqqYfBKdBA1FvVLOSZycXQuivyNUDnuuimiOzsySycBp+fjrfCIpKIhB/lnJuXx+VLl+jr67OqTmKhGU9XUTVu8LU1kVKcKajhtzPzqTu4YURdtLm45FUen9zOv38Q/Y4Gdz/yPPcWu6l79TneVqARscSQD51JOtkpGBdluaeb9tCX2qr591Ybcxe+yjPDKgstioIaHp9so+F4jNvmTPsei4qBpoMKMiIWUo/mhlPAyq2zmBi6OGSILVSyd29Ov3ju3ryUx36+nBKgu+4XPP1rq27TICKgQCMiIhbT0JmIiFhKgUZERCylQCMiIpZK+Dqazo4OK+ohIiKjlHo0IiJiKQUaERGxlAKNiIhYKulAU1Nbx8ntdZzcfoEaM2skIiKjSsIXbIaqqa1jVW4pL67NYZtZtRIRkVEj5aGz6v9bSrfzIotCn98iIiKC5mhERMRiCjQiImIpBRoREbFU6oHmgJM/uS+y4DseE6ojIiKjjQk9mjGsWTuXFztaObm9jkObr6depIiIjBoJ3+tsMA87t58iv24Wd6yenHpxIiIyqqTeo1nUSz7j+dPBMSZUR0RERhslA4iIiKUUaERExFIKNCIiYqmUA82ahRfJxsb5A2ZUR0RERpuks85qautYNQlgPJ+8PIFq8+okIiKjSMp3bxYREYlGczQiImIpBRoREbGUAo2IiFgqY1xOwVDXQURERjH1aCxWUlw41FUQERlSJtxUc/SKFiQam1rSWBMRkZHrhg80kYJJIJCECyjx9lJKigsVkETkhnfDBxpjIEglMEQKPvEEJQUjiznyKMm9Gfq8tLRconeo6xMiM+dWCp19dDR14Da14HFMnGCnr7OFC3ouoQwhEwKNnQnF47gl7I94DLmFBWRnXDP/R5RmsYJQ6GsjoTeTmXMrhVlXB31vljV8w5b/OO27RGOrN+JaTlcheRnDM1iJDGcmJAN4udB5DTLsuHJCnknjGEt2BlztvFEarOiUGDBEPB00NrXQqAAhMiTMyTrzXKa7DzKcY3H2LxxD7tib4eqlG67bPhJ6MyIi6WLSHM11Otu92CbYGZczBnfXdX9v5iu624OHInzDMjcNLLgaPFwRbnjC6qEcY08j8G+z52pGLt+wku1KG63kGr678MOhTlchebcE/vqK7gtf0hnUjfAPtRJuncC+LtGTNY7sDOhzG/brP1YCQ34dV24hz3mTb+6lHVwT7GQY6xWYmwkIOdYCcxj9P4KMcZQUjxtYvbOFC57Q+topLLb3/9XnbuNc1/WBMmPtM9x+fSWRlJD9DaoPX9HbGxjCjrROmN9lyFC401VIHpdo9GYZ9hfm+w373iD0eAk+TgKfdfAWg+oU9niSkcC8ZIDeS1y6aifPORZn12Uy/b0Z40HhO7iu0dH0pf+A8/2ISwrHDOm4dyCopNoTCWwfCDbhgk7osuT3Z2w8rP8BZjgLKLx6icYmL4HvLc9lx93fiIabjxtDrmscma3+79bfCOFuo9Hf0GXm3ErhhEIyDQ1NhnMcmZ0ttGTeSmFWLq4+N42dWZTkOsnN9PrKzrCTN+YSjRfGMHHCLbjy+7jUdAlH8biBkx1PB40eQ91C31TvJc41XSL6HI2XC02+ZbHmaAZOiFoG3n9hASUuBsr1B4arnS2c8xi3S/gr6W+IjY10Zk4euZkdhmPhJrInFHC1s8X3WTjyKMktYEKvoWF35OGik8amQPDxfb+FruvBn8ct4yjJ8NLS1EFv4DPLH4e7JfL3O/Cb7wj6TLL7AsdSYLtCJhBcp0IndF9oUWAZBUy9YNPdeomr3My4wlxfgxNy9jjultD5msD8zi04M82siblCA0i0dYwam1qC/ou0LBlO18AZqq8xySOJtip+QWfmXjxXgYwxBL62zJxcXw/2gvH7vU5nq+GseLydjD4vrYaz6d6uTrr74Bb7QC+BPi+dgQYnA3ouhpug/4ru/uU3wZXLQzwPaCfXeVPI8X2dzsvX4JYs/3dj4nBy5jhczpvoc7cFldXb1TGoYQ7qLXiucBXIyDTMp3o6Qno4g79fIKSXcx33la8gI4P+/lRmBhl8RY9noCy39xqQQWagIMfYwW1D7yUuXQ0+BjIzM4A+ehVkRgWT05u9dLqdFDpvos/dGfzDz8wgg2tcCv2Bea5wNXec70AcZgdVpEAQbnl652TGkDnom8sY0s/w5jG+ISx3xP376tx3xRtSRV+DlZ01hszAK33X6QV/I+dvbAadiAQv7+u9Hm6l9MkcQwaQkVtISW7oi1/5v5tMMjPg6uXImW3x78/XqHd7rsdeN6bgobV+iY7m9fbRx83YHGPoDPRo7DcHHRe+AHITecWF5IVu3+cLbL1Ab5ebq85x/vU0ZDbSmX4dTa/nKn3OW4LOakay4Tmxf53ePkK+PZ39DQfh5hqGt/CXIPiGCRMsqvc6fcAtzgJK+rvX1+hoCh1qjOdyh8CQpb9+EwrJZiR+vgLpvGCzt48+7Dgc4DYeKI4sbuEruodJI5lqMkC6uFvbyAyao0kyUcI/9GH8+G8ecxNcdSdU3rXrX8Etg8sa4AuO2Vl2MjE2PGNwZt3U34sZsfyNrG9IKvpJVug6N4+5iYS7D/7eQ+q9WF8vq8+d+tBjZo4zwvV0A3r9Z0jx1/s6nS0tdAYCjt0OHhN6hJJW6bupZq+Xnj64Jdc4l2BnQu7NcNXd3y2+dj143Hdw5olB5jgmFhdSUpz8/ERJcWH/f6FzJ9F6M0OfXeb7Afrqm9ywQm+X2zenZrz+yZFH3i1w1ZvYjzlQVl7hOMMAlj8ZwP+X2zv4eqv+uZ2w8zDp4u8h9s+lhOc7NiPNJ3rpdH9FhrOACY5IJfjmPoyXAYRmX8UtMK+Reyu5hvr4kgESKojePsgYM7BR0nWC4DmbcDyX6e5LZk7RHxCvj+jTkRtWGm9B42sYe12FQeOzfYYMFfBPDmcVDKxz9ZI/4yhMkYGzSH9j6e5KfLguMMlv9pX9idySZuh6T14uNMGEYuNQx1dJZvp4udDUS25hgSH91ze23l+Up4PG3nFMnBA6tGJN2vqgk5T+9OXBY/6BHqLx2Awdpunt+pKOMYXk+YdxIDhVuLfrS1q4lcLQeRpDIkXofvrcbTR6x4Y/vmNwt7ZwzZ+1F1SfhL67wKUJhtTuq5docTspzEqsPoN+uwYDn+V1OlvaoHDwesbPO1ywC5eWLSPD1xYs+pu/DHUlUhEuxTNV8fZkoq0z3IfeRMwWKf17cIqz3GhG+E01fSmlQemwJkjknmbJriMyuoTLhDQs7+vjWpprJMPHiA00/V3rcFdei0iaXaez5RKZxeOC7pwA6DcqIzfQuFtb1A0XGVYG7qIgYqRHOYuIiKUUaERExFIKNCIiYqmMS11tQ10HEREZxdSjERERSynQiIiIpRRoRETEUiP2OprklLH6yQeZeXE31a/ujXOT+9i8djYOmvjgqVf40NoKxuf+C5y813f3gbM753Lv20NcHxGRKG6wQDMKLOri0L0tCjAiMmIo0MRS/w4vPPXOUNei35qFF8l2l/KqgoyIjBCaoxEREUsl1aNxPLSF0vEnOVXzRtDtwDO//yzT50DLG0/Teca4zPBgC3fIdksfZ+YKaHhiHzdX/4DCwHNKmvdz/JXfJlgz/xyM4YlK597fxOv7g9fydDZRuvoZ1swOrBg8/7J4Qy3LikKKdh9h2/Pv0JBgjUREbnRJBRrPiRZYcQf5S6FlX2DpHJxTsqB5f3+QYenjFPEux5847F/wXQpfXML0h74bEkQKKX3xB/Qc/hXHf3MYpqyjbN0SCpf+1lB+LJWsf+4eJjbvpvp5/0T/koeoWV7L5vzXeGF7ff+ajtkPsqZ5N9VP7SUQnJZtqORDf4LAh69uCpr0X7yhlmXjE/iARESkX3JzNPv20fKtH1A447u07PMHjCnfYLwTOv/DEED2/Yz6oA1/y+XmJeSOdxH6yPDOXY8NBJUzrVzhDrJcc4DDxKN09X9lIk18YMwm2/8KH0yvZVnZPEqpH+iNNBuzzurZfrCJmcvvYDF7Tc0qW1k8n3UltvAvtn/GPSfaEyzxOoumXaT7dBHbUq6diEh6JJkMcBj3mZUwZwoOwANkfmMSNvdJmoN6IHPINQ6HBQy6v/8Vrp43/v1bWp5IbNhsYq4Tmv/foEDx4akmli3PYSJEHvY634WHMgrKICQypuTdpkO822RGSdfZ9uYxFjjH88nLc5l/wIwyRUTSI+mss97fHKJzzhLGLgXPPt+wWc+Z/zT0UgJBpoWGJ35G4AGYvvmdVKttsttzcAx1HaIaw5q1c/EFnDpOfmc6d2wa3jUWEQlIIb3ZNwxWOuO7tJx3Md7Zwpe/MQ5z3c4tTug5vA8Tn7Ic0blON8wePPy1eHoxuI9wLsq2pfk5QBdtJvZmwIqhszEcOD2eBdN6WQMaPhORESGl62h8SQFTyP1GDrbmQyEB5TxX3ZCbdzuBeRbHQ1soLSLM0FnqGo7U45k9O2hSnyUPsawIzr0fJVus7D5Wz3biOfKO6Vf9mzd0JiIycqV2wWYgKWDOFVreCJ1TOUznb77B+HVLmPniEt+i5v2cOjyf6VNS2mt49e/wwlOtrH/uHmqeu8e/0M3xNzcxkHBWT9tFoMi4TvgUaBERMcfXppfP/ctQV2K4W7yhlmUkcH80C63ZfJYnpo3nxbU5GjoTkRFBdwYIVXYfmzdUBv29oAjOnSC7sNMAABOeSURBVBr6IAOw7UsbOBtYef9Q10REJD7q0YQRfNeA4Te0tmbzWZ6YexHQ3ZtFZPhToBEREUtp6ExERCylQCMiIpZSoBEREUslHGhy8/LIyNDz0kREJD7q0YiIiKUUaERExFIKNCIiYilNtljsn350Nytuh+bfv8caKtj71y44f5TKn7QmUIqdn/7kW8y+lOh2VtZJRCQ+6tFYrOmiF/DSeR44352WRybEMhzrJCKjlwLNEPBcHH5N+3Csk4iMDgo06fSpl66hrkOo4VgnERlVEr7XWW5eHpcvXaKvr8+UCtz9yPPcy/s8/Nl0Xv52kX+pm7pXn+Pt08Y1l/LYz5dTYljS+Lsn2fLBwGv87n34tm+dxt89yYny57m3GLrrfsHTvz4bvM/icOUEC9xc03PkNV7YbvLjNwFwse2VCvj9e6z519DXfPMyUxr/g//2Gv3//hWz2fB1u28Vzxle/VED2wH+zjfX0jyoLN8+cv74H/y317wWvAcRkeiGR4+meDkv39XFy48+ycOP/oK6bidz7/seU/tXmMz9/zKdE48+ycP+/16uc1Py7ae4f9pAMSXfXkjnq0+yswly73qKRe2/4OU6N9lzl3N3fzn+wBYo69Wj5H77eR5blu43PSAn3x5mqYNcB3S1DwQHx9e/xYbxZ6h86D0qHzpKs2MKG37k8r34r2c44oGiqa7gYv5uAkW08pGCjIgMkeERaLqP8vI//28+B+AsBz93Q3aOofdylrf/eSvvGTb5vO4s3TjJnWhY2HSwvxeUnX2RA4ZeDADLljM3u5mdL+0bWHb6f3OgCUrKlw6qVsP2H1P91CaLejMAHjoNUyOrH/wWe39SymqAeXZyAhP2AUGZYa2cOA+Ms/vWx8uhRi/cPoWfzgtsYOen81xw/gI/tegdiIjEMnLSm5dtNAytDeg0/Lu7vdnwRxeNIetOdY0HnNz78+e5N7Sg7gKmgj/YpYuXLy/B7PEOAOaX2MFxG/Pn+YfD8PDlp/GXtv21M/zNKxVMmW2HT70wz8UUh5cj/6q0ZREZOiMj0PiDTNBcy7Tv8eyGiiQKa2bno8G9o6HUdNELJb5eSS5n2PXH27hrth3as3EkXJqvl7OixMVqGmD2bTjOn+GfEghWIiJmGx5DZzH4eiLNg4fCEvR560VgPLdOi7lq2mxv94+d/d0Echpb+emRP0OJi3/Kd4Cnm6YEy/vp78/gcdzG/Hl25pfAkd+rNyMiQ2tEBJpBAcLfm8lOtKAP3vclGmzY6E8OiK509TPUPFfL5tVlie4pfue78Thu4wfzHJw54oVPWznDFO4qAS55/UNoCfi0lTMeO7P/8VvM5s8cSqk3U8n652qpee4ZrPwIRGR0GxlDZx9sZWf589y74XnmAr705/fJ3bA8wYLO8vY//wL+5X8MmqeJlOJsuU+9dP2jnSLO+IOCb1J/9tfteBqTuYjSyz992upLdf60IfFAFaSJi26Y6HQyc1kl2+v3plSaiNyYhvw6GrHA31Ww969h10NHU882W/IQNcuLLbyWSERGuxExdCYJmFfK//lrF82/NyHIUMbqhcVAE58oyIhIkkbG0JnEtPrBb/XfMWDw3QESF7grAu4jbHvqHRpMqKOI3Jg0dCYiIpbS0JmIiFhKgUZERCylQCMiIpZSoBEREUsp0IiIiKUUaERExFIKNCIiYqmhv2DTf4uTQdxH2Pa8LhQUERnphj7QAODm+Js/Rnc5EREZfTR0JiIilhomPZp4VLL+uXuY2P93uF5QGauffJCZzoEl597fxOv701ZJEREJMTICTdl9bF47G468RrU/spSufoY1a2sZ3x9I/IGoeTfVz/ufm7LkIWqW17I5X7e4FxEZKsMk0DiZubaWmYYlxuefLF42G4f7CNsMwaJh+zscL3uQmdMrYf9eSlf/VybSxAevGh7Otf8VPphey7KyeZRSr8QCEZEhMEwCTbRkgDIKxoOn/tOQQFHPf9a7mVnmohSYmOuE5v/HhyFbf3iqiWXLc5gICjQiIkNAyQAiImKpERBo6mm7CI6yeZQGLS/jG2VOuNhKA3Cu0w1Fd7A4ZOvF04vB3cW5tNVXRESMRkCg8Q1/4ZzN6tVl/ctKV9/HTKeb4x/45mQajtTjoZhlGyoHNlzyEMuK4NzB0As/K1n/XC01zz2DoUgREbHAMJmjiWH/K1Sfv4/Nax+kZnZgYRMfPPXKwJxM/Tu88FQr65+7h5rn7vEvdHP8zU1h5n6auOiGiU4nM5dVsr1+b+gKIiJikhv3Uc7+W98Ys9tERMR8I2LozHxlrF5YDDTxiYKMiIilRsbQmYlKVz/DmtlO3007n9JNO0VErHbjDp2JiEha3KBDZyIiki4KNCIiYikFGhERsVTCyQCdHR1W1ENEREYp9WhERMRSCjQiImIpBRoREbFU0oGmpraOk9vrOLn9AjVm1khEREaVhC/YDFVTW8eq3FJeXJvDNrNqJSIio0bKQ2fV/7eUbudFFi0yozoiIjLaaI5GREQslZabak79h6d4eK6T7rpf8PSvz6ZjlyIiMkyoRyMiIpZKORkArrPtzWMs6JzOHZsc5tRKRERGDRN6NGNYs3YuL3a0cnJ7HYc2X0+9SBERGTVMmKPxsHP7KfLrZnHH6smpFyciIqNK6j2aRb3kM54/HRxjQnVERGS0SWvWGU3v8/BL+9KxSxERGSbSknX2eetF3z+Kp3N3OnYoIiLDRnrSmz94n7rutOxJRESGmZQDzZqFF8nGxvkDUVZatpy52dBd9z7vpbpDEREZUZKeo6mprWPVJIDxfPLyBKrDrTTtezy7oYJsoPF3T7Llg2T3JiIiI5UJF2yKiIhEplvQiIiIpRRoRETEUgo0IiJiKQUaERGxlAKNiIhYSoFGREQspUAjIiKWUqARERFLKdCIiIilFGhERMRSCjQiImIpBRoREbGUAo2IiFhKgUZERCylQCMiIpZSoBEREUsp0IiIiKUUaERExFIKNCIiYikFGhERsZQCjYiIWEqBRkRELKVAIyIillKgERERSynQiIiIpRRoRETEUgo0IiJiKQUauWEtrlxhybpDWY5Z5Scq1fpEWy/R97S4ckXM/5Jl5udrLCtWueFeN6Mu6TpeMtKyF5ERLPBjjPSj/HDvrnRWp3+fiytXBO079O9o4m1gopUXaX+J1MO4n1jbJVJurHKiCX09Hd9vPO8/lmTqbcZ+46FAIxJFPI1fImXF2ibRfYUui7exidWwxNP4pBrsAutH+ju0nHQ1isZ9h+t1DEUgile4egck22s04/3dYIFmFYWbH6To4i4Ovr4lvk0m11LxQAVZNHO6+od0WVtBcy3q4tDDF/nTy5NZc8Cw/P4LnFx8My+uzWHbEFTLVnIX33T9mT98cpaeiCtN5psLb6P14Ec0R1wpPLN6HvEEBuPr8Z5Bxion0W3NbnxT6TlE6uFEWseqRtrsIaFovTezxPv9hgt+ZvT0Iu3bDDdYoEm3AlZuncXEQcu9HHvrY/YdsnLfHnY+3AB1s4KDDMDbeXyy+BhPvAmkPdi4KCl10HE8SpAB8iZPxdZ2OOEgA9Ebu3jPoAM/7nANTKRl0ZgVDBKZC4nVcEVqwIxnxdE+g2h1MKO3E046hs6M60XrRUV7P6nMTcX63kK/n3jqlcxnb+YJjAJNLGc3cbQ6tSIuH/+YbVu95tQnLtfZ9uYpJn8xnTteGBPm9TGsWTudndtPsWGzk21h17FIfiF5tHKiPdpKLlwF0HG81fTdx9vwmdl7MDZYiewrnnVTaQzCNaKxGrFI68VqlKOJ1NjGmixP15BVtO8uUo8inrrF81nF26uOJZnPyszPV4FmFFqzuZkFzkJ2rHVEWcvBvTsLOXlvM9sWTR7c67GEg6LJLnoaPqIjylq2kqnkeT/nD1GDUXTGH7HZk6yJzstEGypKR1ZWrICRbM8j3HrJBptke1bR6paKWN+bmfuKJtwxHG3ozMw5xaEPNLZidsy7lfpP/wjl86mw+Ze3f8Y9oaeqeeXsLs8f+Nuwzsri+axzfckbnzbxbug+8srZXQ7v7f+Mn8ddMf8cjKF97dpTxemQRvRKZzNZK/+NiorAisHzLznr9zAtdLzLc5SjL2ziStx1SYSdpbV3MstQ73N79/DujuC1CjbeyX0z7QMLzh/jpWfbQsq6zqJpF+muKyJmR8w/hLbgOx44EC4oTeb+f/kfzM12U/fqc7x9Ov53FJbNhcvuobXVE2UlB3kuBz2trVGH1mJJZNgrVjnGbUOXJbJ9KszK7oqn7FTPxlPt4aTKrM8k2txIvKzoiUULKrE+cyuPo2hS6NHYqJg3n+bP9nFPB/7AUM7reftY7z9dXVk8n3UlXt7bv88fLGz8ZN58ds8wBCSbk6Iwpa+026HnS5rjrs9jTKtZQc65XRx8wT/Rv+iXLKzaQ0X+axw1tNpZFQ9ScW4XB6u3EAhO09Y/1p8g0PV6FQcNJees38O08XFXJEH+eZzzx3hpkz9orJrFI5VVrMkfGHKb8XQVVbe3sWfjx5wwbPdIbT3vbGqkP9wscvNXTmj/Mp7hsDEcOD2eBdN6WQOWz9XkTZ6Kzfs5HdEiSP5USuweGqMGo/hEGhpKNjMq0g98KBrTWEMqib6/RN9PrPXNHOKLRyq9ingCZrT14snYSuX9J3NyNBTHZDQpDZ01fzYQVOhopZl8cuw2fC1JPneX2Gj+7JChR9LDjxra2V3u4lHa+bnXy7r+1/J5fUk5+MssctjA2zO4pxNB1sq7yKGZ08ZssgM/5PT0PUwrm08WOwZ6I+eMWWc7aDm4gqKqGeSAJVllY2feySNbDQs8A8GhYGMZE2ljj7FnsuMYe6ZVUVVaQAGNtM0vYd7tcG7vMX+QAWjj3b1tPFI5gRnzG2kLJBaUXCObQt5/O766bfvSxhNzL7JoUQ7bBg2fneXtf36SOIuKITDvEiMJ4FYXJJkEYLZwPZhU5yTMGGaJ1bNKZWgvUG6iQzCRkioSqUcqYtU11UbXyuGxePZr/M5TyToLbJPuIGTdHI3NRg7gKF/K7kEv9uCyAT1uPNzq+7fN5evZuPKhw9fb8Xjin0DPynXAuY8GBYquU81QlUMWRB72auniCmVkTQbOxr3LuEVLBsjPscP5ekMA8Tlxuo2qymzygbaJ2YyljU9DhtLYcYFzlbPImQj4A82aW3sAG8ONrWRq7CQA22RKTEwCiBQMkslcihZ0EpHq0IXxPZk9DxFaz3iGYGINL8UTtKKd9Q91tlSAFXM08X42ySZsJMLqZAvLkwGCej2D9NCFjRybb6is+bPPoNzFo3hx2YHUR0/iU+gLRKPBti9tPJHwVjbOW5oM4J93aTgSPQnAdRs27+cxMtISZ0Y2VKSgY1bKbrw9iHgCZrwNX6wGK56MKDMao3QMRSbakEarQ7InLvGIZxgy0e3jMYznaGLo6aELDENp4Xjp6oEcbHzT5eXkp+3QXs4dea1ggy5v/OMnVzo9UDF4+CtnehF4jkadxM/K9211xYLeTCztXV6YOYEZtAX1amZMKwBPPe0A57q5TBnTV8EJY69m1QQm4uXYOcOyxpvppoHZ908gnjGvNbf2gHs8Daa8mwjSmAQQYFYACC0zsNyKYGPcTzyNjVnDOam8h1jZfbGGGFMZurMyKSNSMsCHe3cNei2RLL3Q+sT72cc7RDYc52fA0h5NO+819rCuZD6veyP1anpo9UJZ6dcp8jZwD0BrO7tLS/HQQ30CLc6Vo/VcqagImtRn0S+ZNhG69kTJFptcy7QKB1eO/jqp+ZnS1c+wZrYT3EfY9vw7CTfYbYcvcHlmGVVPF3Di2YFkgKrb4dxe/yT/oTa+WFXGrMpZzNhxbCAZoLIAzh8LvvDzgJM/PQALyj1AtPRmCGSo0emKkAgQyDqDxt89yZYPEnxzfnFdfJk/lRJ7KycaU+/GpnpWGK68aGUM1Y/bjDmaWGXFs00y8wSx9ptKL9Ts4B9P7yZSkA1XXrj9RAvE4bZNNLMsnvpaydKhs3ebDgHzWRc6T2NIcW729HB3vo3mBv94SUcrzeXlFNFOayKntmc3cbTal3m2sCbwBXtofquKlv6eyg6uXHwQJhrXCZ8CHa+Juc7kNgw41Mi2Q15fBll/woCXY2/tMQQQL/s27aHt6SqqtlZR5V96+fjHvDRo7sefSTa3lW2LHNGvj7m/gwXO8XzyVqSAdJYvLwLZUFK+FD7Yl8QbjO/iy0ASQLShtXiZMeQTbdgs0jBTvAHJLKmUZVY9ovXsQjO2EunVhBPr84t3f2ZIpL6pvDerhuVC9xdP5lwqvja9fO5fUi5llMtZv4dpJHB/tCF3nW1vHmNB53Tu2BQpiHjYuf0U+XWzmB/tzgDTvsezGyrIbnqfh19KPNDYSu7im6VeTuyNEkRsk/nmwqn0HN9l+vxMJOlMN7VCInMIVuwr1pl2okEl1XmaWD2CaKL1FmIlO4TbPhXxngQlGrCH+phVoAk1uZaKygscDQQV/001r6TQ6xkSi7o49HAD2V+ECzb+QERpzBtr3v3I89xbnOwFmw6KFtyFq/Uj/hBlSCyum2yKyIilQBNG8F0DUhtaG1Ip3L156j88xcNznUAzOx/dyntpqK6IjE4KNCIiYik9yllERCylQCMiIpZSoBEREUsp0IiIiKUUaERExFIKNCIiYikFGhERsZQCjYiIWEqBRkRELKVAIyIilvr/WpQ28vT7fDcAAAAASUVORK5CYII=;" parent="1" vertex="1">
                    <mxGeometry x="79.89" y="300" width="233.84" height="150" as="geometry"/>
                </mxCell>
                <mxCell id="6" value="" style="shape=image;verticalLabelPosition=bottom;labelBackgroundColor=default;verticalAlign=top;aspect=fixed;imageAspect=0;image=data:image/png,iVBORw0KGgoAAAANSUhEUgAAAFkAAAAbCAYAAAAXmyPIAAACpUlEQVRoge2ZzWsTQRjGn0r/gybgwUI+q9cW8eQhSmmLSilYc5W0iXj1oISeNVlK0Yv00NgKnmo+sFYtRorNQXpovq422U0KCSRkN4eg9/GQbZKazWQDzSTW+cHCZt7JvO8+PPPOkozUfv0m4PSVS4Mu4H9g9DgjDbqGC88IIYS3iz7D2wUDuMgM4CIzgIvMAC4yA7jIDOAiM4Aq8s7uZ53LpOGz2GFuuXyJc6iORkKo51oKQVaHUkI991JYpn6VOYTCw+XHxL/6ksiyQptGSClIXGY/SdJnnR+0fKUgcbmCpMKqFh10bRc/jzMQ1l7RXV2UcPBoFlNasVPHWewwWwSkWkJy2NOMtTiyK5R88o9vwB0HjHrXYoCunqwoVezsfsGbt++gKNW2uHwiARvOhmCN7ZoQYHYCkVwW+VwWR6sSXqsxOezBjb0ZHKmxyMQKAjpbTGp/E7dsVzRjBTEGm2mYJO7x4FOUKgyGsbbxghiDJ1gXK5/LYmvRCEDG+3UJwqG34TijyYoDsQggjcAzKyJbDxqOG7c5IJ7QvXzq/K/TpznamfIGAacdZiHdy6P1FV0iGwxjWJi/C+/TJxpRGdmMA9Y2YxUhxaywX26OpPY34ZmeBMoiRIcV4y1rfN8DZm/SHWhcDCB/6IO43qm1pOGzRDGXyyLvndTzaEzoKvK1qxNYE55jYf6e9oRyDNG/xGwiIVtWbxMC7m8sY+66+jkmoaDeyuEVeDGD25pr9EAiikCns2GQ0E7FDx8/dT86435i6nSax/3EZLap19m3gUrI3Yz18DZQCbmJK6Q9mxYbJFSRh5Gk30ZexLUiFbLtcpPtEuuKuvPPidzYHS3uT/rrO2IYXUwIIfyfEQbw3y4YwEVmwGitVht0DRce3pMZwNsFA/4An5EYXqPmGQIAAAAASUVORK5CYII=;" parent="1" vertex="1">
                    <mxGeometry x="400" y="361.5" width="89" height="27" as="geometry"/>
                </mxCell>
                <mxCell id="12" style="edgeStyle=none;html=1;exitX=1;exitY=0.5;exitDx=0;exitDy=0;entryX=0;entryY=0.5;entryDx=0;entryDy=0;" parent="1" source="9" target="10" edge="1">
                    <mxGeometry relative="1" as="geometry"/>
                </mxCell>
                <mxCell id="9" value="" style="shape=image;verticalLabelPosition=bottom;labelBackgroundColor=default;verticalAlign=top;aspect=fixed;imageAspect=0;image=data:image/png,iVBORw0KGgoAAAANSUhEUgAAAfoAAAEBCAYAAACQQGeTAAAAAXNSR0IArs4c6QAAAARnQU1BAACxjwv8YQUAAAAJcEhZcwAADsMAAA7DAcdvqGQAACTeSURBVHhe7d3frxXXffdx/gXuKvmOi4oLyyQVypMGy6ZFTmr8AzvIgCNRJ8ExNQFDpPKgCFHbCAkTEqTaToVd/IAeah+5R9gRskKdc0FFVCGRSo8iNUWtLDVS1Os89Kp3q7PWzJq9Zs13/ZjZs/fZe8774iXOzPqutecc9pnPrDVzztm09eHtCgAAjNOGDvrDx89k7etq2jH8/u5237Hn3S9mFmNiMUn/10P8//MeAvIR9Il9etvltsV0qfX5fVPbkj59JG4//XGM2y+la73mv16M1H8Mcj43/2shkfq5pD4hUn9Lavf3uWNJ9SFdaq0+fYBlR9An9rnbofo+/HFcfntqW9Knjy/UR9of2teXP1ZIl9pll/u5purm+TWTXsvf526H6vvwx7FibcAYdQj6p9Te4htk759IbROPvlh8k734lNi2SPxvdvcEYfl17sexfSmxPkO+Rg6prxVq9/enxpml/Nfeqb7+cvE55743/+QVM/bhl/erP5Laeym/hw4+s1Noi+vyNU7Vzuv/y38d8/X0+HXux7F9Kak+fcYEllV20P/RMz9In/S+sl8dPP4D9fWvCG0Lxn6j+9/woW3pxCDtS0n1cV8vh9/f9s3ZF+PW+31T2yG6LkSqz5Hfd2MFfYrUb2j2dfzXC21LxyXtS8np02dcYFllBn15kkydoLIuBhaA/iZ3+W3Str9/FqTjsfvdf2NCNTl9LV3r89ulj1NCtV3G8OX37Rj0M9Ev6Lt+fVL103y9c+nXcPlt0ra/f9bm/XrAeskLejO7eUU9KrXV8pb2F4n7ja4/9rn7bZ3E7ZMi9bdCNXZfqn9M376x47EfW26NJFST6uu+RleTcQh6K9Zuv259hMZzP/a5+22dxO2TIvWXdKkFlllW0Gfdd8+6GAio+5YnQvsN2z4hVifrusa9TRC70JBXJKRvdH+f3ZZqY/rWS/1yj0G39xUaL3d/qNZlX0si1efI7zt5D5iVp/q1vfesXbK3pPd99vu1+t5xakJ1MbqPtD/Efz2J1C+lTz+pj7/Pbncdv8/xuKbtDyyLdNCb++6pmfqUs6X65DoJ7vJk3A7yxknS9LM1sdlS+yIg9E3u73e3u5wY+tZK/ey+LmNafp/cMUJ1oWPJHXdo+a/rXCTW79PY+zbSlvV+rfo3bmXF3qNhfb+2fr++41hd+4fqY8fV5TW6Ho9v2v7AskgG/VwewmsEdsW7wJCPozyZlidO92Ov3js+/Q3ukva5+8vXip8Y/LZYbYzUz+7rM2af49I1PrfN/dff77P9u5DGCcmvDwR3PTt39hmpoI+/X8WaGQe9X9d12zdNf93mkva5+91+9mOf3xarzTFtf2BZJII+78RklieneQgv48QpLYHWqpPx5BZDdZK2Y5qxmidz3c9+7PL3u9uhPprUT+LWSPwadzunvy82XkyoTjqe2Ji5r2fNrj4Q3N5F4MR0QS9fmM5+Ru/W+v1S276c+tgYobbYuF3G09sStyamSy2wzOJBH5ztuNrL4p3lBn3iYmJyci2Oqfj30WLbnFSzPo+S/83vnjxiJwapn7udKzZO19eQ2lN9UqTjiY3p14dI9Tny62Mz+sUOeq3L18XW+n3c7dR4UnuoT2osn1+vt+2+2FhSP3e7i2n6AssmGvSTGbLcbnQI0aDcE2fqdfQ4+uRa/GtOpnqMKvCliwT9zZ46edjt1IkhNU6u2DhdX0Nqz91n6Tbb3rWv5raHanNqQvLr5eAOv68GCHp/3KpmvYM+NVaoPdYv1sdvC22HxrBS43QxTV9g2YSD3pyUpJmOqzwZ9jlxNWScOO1sKDqrr4754Mt2rOr4im33hK2/yaVv9Nx9Plvj1ub0k8TGSG27Qm3Sfmlcy98vbfv7XW5bqC6nJiS/XgjuaPBOF/Stsattfbx9v1+m/drk9I/VdGnT21J97j6frXFrc/pJ+vYDllUw6OWlR08VrPGLgQxZQa9VYd/g9mtfDJQzq7yTq3QCkPa5/PbymNLcPi63Tapzx5DabY203/LHkOr9fV23pf364xCpPsbW5dZr0nMezffX5P3S5rzPct+vps7217P76S+M9Vih/X1J47lsTU5tijRGaly/XW/ncPu4faX9wJgFgj7vXmLOffNl0efEMIuThh2zz9i6zyyOyRV7DWl/l+OJjS3pUovpDPG1Do0RG5v/Y2B6ctCbmUjqvnt5MeDPiAAAwOKIPowHAACWG0EPAMCIEfQAAIwYQQ8AwIgR9AAAjBhBDwDAiBH0AACMGEEPAMCIEfQAAIxYRtC/onZ8fEft+/nErmNS3SKZHPNiHevj6tVbP1SXfzlx+g2pbkjb1N17m9SD69ua+49sUQ/uP6RW3X3TMmNuUqrQej0AwLpIBv32y0VgfvyeekRom78qwC+fFdpcixn0e1eKcL/1gnpMaJuV1VtF8N7boi6E2gYL+63qCwIeABZOIujPql0LFZa5Qb+IdqvTc5nBT1y4vjkR5OVsX93aKrR1dPGhAS8aAABDiQf98++ppwn6YRx6QV2YZ9BXy+hfXBTaXLl1KQQ9ACykKYJeDl1/qd9s65pjK859/s/VjucnfWqNmjvq6XOvlPur43DbXJPjmyzZlwKvU3jk3OdOXUH6PHKPO0dG0D/209ca9+8vr+xu171xqFkTuBVgZvOBJXtfbHk/G0EPAAtJCHo/LD11iHcIeqmfd9/fBq97UfHIuRUvWOXXFJmAloO5PKYVtb3eV96i6HPcce2H7xqckDb37395SO2t+5ZL/W5NeSHwmnr1kK2x47v9tI5L8kOENEEPAAtpPjN6MdSdoK1ep57BBw0Q9KHPyavPOu4uYjP6UJuZvdtgL4P/wk8fb9aIfcsH47KX4wdYvjerAkPc6wcADGoxgj4y+24aIOjNfimsmw8ezjXoTaD7s3LNeYDP9Hdn81Y5q29cAHQN7imCvnxyf4B7/ACAmSDoayMK+l4z+s3q7hGhLdMg9/kBAINbqKV7+XVcAwT9hli65x49AKA0RdAHQr2o7xz0hbJvM5jbD+PZuoywDa4SVBcLjTGqh/GcC4jc484WC3rxobrqYTznyfvygT3hYTzhyfv0z9BP8NQ9AIzXVEFfB2RFP0xnwrBH0E/2N8dz20s2qCcmx9c8ngZp5cFp919rvkFfKoN8ojV7L2T9CJ5W3XdP/qa6AR7EMwh6AFhI8aDHUuM34wEACPpRq4I8EMDlE/MDhXPuCgIAYK4I+tErw34uf73OzOr1xQOBDwCLgqAHAGDECHoAAEaMoAcAYMQIegAARqwV9Dt2/pl6+EtfbewDAADLiaAHAGDECHoAAEaMoAcAYMQI+pAjv1bf+fT3E29/JNcNxP8d9tLvuZ+lH734r+rfX/yJ2Bbz3v6T6rff3atOC21tT6o7R4v6o99XP/uK1J7jmProe/+q/uFPpTYAgI+gT3pL7bo++6CfCPw52hk6/Mw/q38/cUv9SGjbuvPb0WCef9AX/vRWcbyEPQDkIOiTRh70JjT/WX30v4Q2bdCgH0704gQAUCPok8Yc9D9R/1DMjP/fM8eEtsqCBr1dwu9zuwEANpK5Bf3X3q7udRu/U7v2+DUfqT3uPXG/Zs9tdcDsq4LX1rUC2GvXrt9WX27UbFdffv13zZpgkKeC3n896XPrIhH0bxxq3Mu/fOsF9ZhfU/3t+0adcUjtdevMbF6eFZsAN8vsAifYTd3+J6sLAlvzbfWeM9ZkyT7Ubj2mfvZdt64Qu4hIrUac+ECtra2ptSsn5XYA2ADmEPQ2CH+tvubue9sJXxPiv1cHXn+rap8E8Z4jzZrGvuqBuXq7YC4ohGB3lRcd7vFUFxliv1jQl/3c4y6PaZqwDwd9+cDea+rVQ3bf4+rVW16AVyHv9t+7IoR8wTyA970Vddjb35Azo28EchXWgYA+/dT3i3o56LuvDpQrEsF79QQ9AMw+6MvAjgefHM5ewFZB74Z6O2hjoVwRxykEAzo8pvncAsfdCP9OQkEf2F8F++k3qm0z43cvBgL7qqXv6LK91mPpPhbm4bbqAkGvDrTaQli+B4CUmQd9eoYdDsZGkGYFfcH9sTjpdU27O5u3yrFaFwCRoG/ejvDELjaiYoHuh7VWzurr+tCMvrXEn3F/Xptb0Bfc5f+smT1BDwAp4wt6y1nqbwT70EEf/dz6mDLoq/7Re/PGos3oHV/Zq/7FBn60NvNzAIANbE5L91KwTgy3dC/w+4njFPou3Sc+t+6mW7o39/GlB/QEg92jHzrorSrw7+wU2ozEPXoAwDwexivDuBnkRXi6D+NVy+1uYJch6gRv36BvBXgV3I2Aro5RXG4PB738uYWcUpdu3larhUtHpXYrFPT2oTrhYTwn2MsH9qQZvCD11LpWhe2/PPWY2D7ToE9cZGQ/dX/jonpWageADWAOQa/ZcLWEmXNjqV3zZspZQV8Fb4M0S2/fX/cvFsoLjWZNyR8v8zWfu6SuRoK+DHFJM7T9X5V7eWV3Y5zJk/ht9QN7tXJGnLzH7d4715xgzwr6xlJ80+QCwv8RPC0S8jn35/deVDd00K99os7vFdoBYAOYU9BjXuQH78I/Ypc1q19Aub8Z7/gVgh7AxkbQj0p7KT++v2Tu1S9T2JuLk4x783ZGz8/RA9jACPrRkZ66L7SW+JtM2C/Fj6mVS/bxkD+p3jdL9mvqxvn9QjsAbBwEPQAAI0bQAwAwYgQ9AAAjRtADADBiraAHAADjQdADADBiBD0AACNG0AMAMGLBoF+9tUmp+9pDalVoBwAAiy85ozeBf2+LuiC0AQCAxZZeuj+yRT24v1nd9f9+OwAAWHgEPQAAI0bQAwAwYgQ9AAAjlg76h7epu/c2KXVrq9AGAAAWWUbQly5c32x+3O7B9W1iOwAAWDwZQb9VfUHAAwCwlLhHDwDAiBH0AACMGEEPAMCIEfQAAIxYMujLp+35wzYAACyjYNBP/nods3kAAJZVeukeAAAsLYIeAIARI+gBABgxgh4AgBEj6AEAGDGCHgCAESPoAQAYMYIeAIARI+gBABgxgh4AgBEj6AEAGDGCHgCAESPoAQAYMYIeAIARI+gBABgxgh4AgBEj6AEAGDGCHgCAESPoAQAYMYIeAIARI+gBABgxgh4AgBEj6AEAGDGCHgCAESPoAQAYMYIeAIARI+gBABgxgh4AgBEj6AEAGDGCHgCAERtZ0B9QZz68rVbfPSW0BTx3SV29WfS5eU0dltrXw8WHlLq/yfjiotAOAEAmgn7Rgv7IFvWAgAcADISgXzAXrm9W6t4WdUFoAwCgK4J+wRD0AIAhiUG//fIdte/j99Qj3v5Hzn2u9v38c7XjeX9fUW/5/Y6tFPtX1PaHX1E7PnbqLp+d1GSrgtwstZcuHW23X33zgNr95k2nrrksf/jd5hjGh5fUbqdmvRD0AIAhyTN6E8531K5j7v4qqN2ALuqePveKU3NW7fJDvBpLq2uff0893Ro/5ZS6pAPZna0fvWZCWgd7uc+5EKjr0rN8E/wEPQBghAJL90KoZ4ZzazVAvGgoLwiaFwlx5Qy9/cBcM6QDoW4uCMIP2/UN+tNPfV/99uhJ2f4nxT5x29Tde5vUg+vbhDYAALoL3qMvl+T1kruz3VrO95bjrVbQN5f7+zBhLM3KGyEeCHrzZP1NdeY5Z59j/Wf0ZcCr+5vV3SNSOwAA/UQexitn3eVMvAz05gzchvzkYkCTZ/TrHPSmZpGD3qoC/9ZWoQ0AgO4iQV+Ftl6+N8v2zUAPLb/PKuinWboP9bX6Bv3wS/fcowcADCsa9GVIr6gdetm+9ZR8+z6+CfkZLd3Xv9jGDfHqYbzJk/dC0Ff9Jg/stS3OjJ6gBwAMKx709fJ8IKirB/Tqe/NF6Lfu5Q8V9Eb15H2tvRxvQrtR4/8IXhtBDwAYq0TQbwwm6KX7/+uAoAcADGnjBb1eyheW9lOz/rmp/qANv+seADCEDTmjb/7WvAUK+YqZ1fPX6wAAA2DpHgCAESPoAQAYMYIeAIARI+gBABixVtDv2Pln6uEvfbWxDwAALCeCHgCAESPoAQAYMYIeAIARI+indOXvTqv//MfT6u5fFdt/9bL5+D//7imxNuxx9dlnXfs9pe7q1/rHE+qz7zbbhjkmAMAYEPRTOvPOiUnYfnef+rcFCPphjgkAMAYE/ZSkUP23dx4Xa8P6BH3YMMcEABgDgn5KjVCtZtkLFfS9jwkAMAYzD/rjV9bU2pWTauuJD9TaWvGx8Yk6v9evPaner9tL759otr1/YlKj28zYxcc3zu93xpnsb4/TZP+4zdU3D4jtw6mCXC+hV8z9c69dh3EZ0rbuZXXFGafZJtcAAOCaT9DrwL1xUT1r9u1X52+423bfB+p4vb1dPXv+k6KfvSCwAV9u6zFv3PjEBHxZZ/tWY+sLCzvW3ovqRiDs5xP01b10d7ZePSA3mWU7FwJ1XXqWXwY/QQ8ACJtP0DdC3YZ4M9hbGgFdBX0V4OXFQ9m/MZZZNWiPa+rd8J+jUBibJ+M/26fOmO1AqJsLgnCQE/QAgJTFCfrG0v6EG/R2id4d0x2r/Lg9huEdw7yYQJdm5Y0QDwS9eZDO3mtvI+gBACmLEfRVyDfutQsz+rygb8/o19NUQW9qCHoAQH8LEfRiQPcI+vKCQXrQb/1Ms3SfCnKCHgCQskAzeiegq5DXs/xOQW8fxvMvGgLm8jCe9AtrqofxJk/eC0Gf8fPv0wf9KXWp+PxXb95UZ56T2gEAy25h7tGbuircy9Avw71b0Gs27JvKcZrm9+N19rfYWe3lePtra13NH8Frmz7oD6gzH+qgL7x7SmgHACy7mQc9ZscEfb3839PRa3O62AEArAeCfmk8pe42Qn2I33hnZ/TX1GGxHQCw7Aj6ZVLd27emCXl722L1w0tqt9AOABgHgh4AgBEj6AEAGDGCHgCAESPoAQAYsVbQAwCA8SDoAQAYMYIeAIARI+gBABixYNCv3tqk1H3tIbUqtAMAgMWXnNGbwL+3RV0Q2gAAwGJLL90f2aIe3N+s7h4R2gAAwEIj6AEAGLFBgr78m/CTvxcPAAAWA0EPAMCIpYP+4W3q7r1NSt3aKrQBAIBFlhH0pQvXN5sft3twfZvYDgAAFk9G0G9VXxDwAAAspUHu0QMAgMU06MN4a1dOiu0AAGB9DDOjP/FBGfRrH6jjUjsAAFgXAy3d71fnbxD0AAAsmmTQl0/bJ/6wTTWj5+foAQBYLMGgn/z1ushsfu9FdcMs2a+p908I7QAAYF2ll+4BAMDSIugBABgxgh4AgBEj6AEAGDGCHgCAESPoAQAYMYIeAIARI+gBABgxgh4AgBEj6AEAGDGCHgCAESPoAQAYMYIeAIARI+gBABgxgh4AgBEj6AEAGDGCHgCAESPoAQAYMYIeAIARI+gBABgxgh4AgBEj6AEAGDGCHgCAESPoAQAYMYIeAIARI+gBABgxgh4AgBEj6AEAGDGCHgCAESPoAQAYMYIeAIARW56gf+6Sunrztrp0VGgbmS+//jv1nU9/P/H2R2LdbD2uXr31Q3V5ZbfQJnjjkLr8y6L+1gvqMam9l93qdDHmhZ8+LrRVLj6k1P2H1KrUFnP0mlq9eVOdeU5oC9j95s2iz221+u4pr22buntvk/riorsPABYDQb9ojvy6CPffqV17hLa5WoKgP7JFPbjfM2AHDfqCueAg7AEsHoJ+wXzt7fWawfs6Bv1MxIJ+q/qiCNYH17cJbRl6BH3Kheub+60uAMAMEfQL5S216zpBPxEO+tVbm5S6t0Vd8PZnm0HQ2yV8dWur0AYA60MM+u2X76h9H7+nHvH2P3Luc7Xv55+rHc/7+4p6y+93bKXYv6K2P/yK2vGxU3f57KQmhwl6fWI+oM58eLtcQg0so9ZLrNaHl9Ruv93sO6UuOXVX3zzQGGf+MoLeLO1X9+6167fVl1t1H6k9bk2vWwFl0OuQfeynr5XL8sYhtdets0v2lnRhYGp0vzK4ba0U4HtXnLGCdeVsPrpMboI8/B4o26+pw9H3QLNNrvGYJfzN6u4RoU078YFaW1tTa1dOyu0AMDB5Rm/C+Y7adczdXwW1G9BF3dPnXnFqzqpdfohXY2l17fPvqadb4ydUM3p9oq1n9dIsvziBiydr54LAvRCo+85khpen9fBdwySkyzo3tKsLg09/rb5mx9tzWx0o+h14/a2qZjL+nlD4iKoZvQ7bOrxjs/xIW30x8Jp69VC5r7x4mGzX/Rv3+AMz+kSYlv+/7v+lvTjUwV7tqy8EnLrke6B8L8UvCBMXIQQ9gDkLLN0LoZ4Zzq3VAPGiobwgaF4kJASW7g+/2wxxialxZnTtICj0uDVw+qnvq98ePSnb/6TYJy42oy9n6W6AG1Ww2xA39/hbs/w+twQCwV3Pzp19Riro3VAvHHpBXShC/PQbkZpA0Jt74cFl+0AY+/+/YqiXFwThIM8JepbvASyW4D36ckleL7k7263lfG853moFfXO5v5dAEE+W4e0+b2nfagW9M7tbGJFANoEuLcGXfcoLAPfjZp2Z1YvL/CGB4DYB7QeyNl3Qmxl+64l9Oeij9+fN+0SalXshHpi9xy8cCXoAyyfyMF456y5n4mWgN2fgNuQnFwOaPKOfXdA3Z+vCEm2rhqD322SxGf36Bn10Rj9V0FfvnwGCvvdPAwDAwCJBX4W2Xr43y/bNQA8tv8836P0Ts3winlXQb8Sl+/Le+vBL9+K4VU23e/TTLN2ngjwn6DMeFASAOYoGfRnSK2qHXrZvPSXfvo9vQn6OS/fte+3tGZkJ+aLf0s/oCybEpYfx3GCvnsp3LwjaD/FZZXDpr4+/UiIGdyh4jemCvjV2tR176j40ay7/z4X3hfMekIK+7Bd7X2QEfe5T9zcuqmeldgAYWDzo6+X5QFBXD+jV9+aL0G/dyx8q6J1QmhBOytUFQV1ThL4J9hEEvWafoK8Fl/mdGvepfJfztWoHvfyjbnUwV8qZeLuuEew5QV/X2f56dl9ePEgXFuY+feSX05T/x833QaPGf59o7oWAKBX0Gffn915UN3TQr32izu8V2gFgYImgBxbVlL8Zr5cy6KWLIi33N+Mdv0LQA5gfgh7Lq/r98rMKe70q0L5VFFgJqo4leW/ezuj5OXoAc0LQY7mZgJ3V75ev7u3Xy/uh2z3lkn085E+q982S/Zq6cX6/0A4As0HQAwAwYgQ9AAAjRtADADBim7762G4FAADm57//+/8bUtvQCHpgAR0+fkbcj/5CX9N5fq0X4RhcQx2Prk+R+q0n6ZiGOM7cMQh6YIMb+sSoxxt6zEUnfb65+3LYr6lPqrVC7al+Lve1UqT+rlBNTl9Xqr7rePMgHZO/T2+73LaYnFqCHtjg3BOFe6IJcftKfWJtllszFv7nldr22a+Ny21za0P7XO44OUJj9N3nirWn+vqmea31Ih2Tv8/dDtX3ofsS9El/oc6uuD/ffFv99UmpDv19U534/Ifq8t+/KLTNx81fbFLqF3/s7d+lfvWrTeo/3nH3zdO31IHiG/XAs1LbxDdeKr6hX/qW2JbDngwksTara//0mOXnretKJ9Wer0t1i6Xr18Hn17jbUv++rxdr8+W+bur1JLF2t79PqvdJ/daLfzz+sdp2+6//cWxfiu1D0Cccv1yE+8rfqH1CG4ayvkH/9sd/oNT9P1Q3hbavvvOH5rfQrUfY79x3Uh0+fEjtFNpqXz+kXuoRhPoEIJHq/H2+WE33Mb+p9hwujmWKC5dFoD/HEKle89vcbalfl7FcsTZf7ut2fT27r+tY2rTt8xb6XEPb0vFL+1LcPgR91Fn118zg52Adg94E+R+oX/1voa0SvRCYmTLwXtr3TaFtIutiICF2Esk5wXTtHx2z54XLogl9jl2+Vu62/lji1vu1/naM298l1YZI/TWpze6LtYVM2z5P+lhcfpu07e8fAkEfc/Bv1DWCfg7WK+j/WP1HMVv/r493CW2ucgm/vbQ/Q88eK77hj6lvSG21vKX9lNiJJeeko2sktk2q9/fVzOe9PEHvfr7u5xX6HEP7NXccy21za0P77P5Y39S2S2rL3WeF6kN9YmNptm+M1G89ucfkH6ttcz8OcfukuP3WPeh3Xrmj9q1eVY96+x/90S/Uvp//Qj3x5/4+50/V+v1OrRb7V4vZzV+qJ1aduis/ntR0kRH0+976rHH/fvXy2V418/O8+ux7J9VvXnhenXvhNfXboycrh9VVv/aJl9Rv6vbC915S5xptr6nPnnDqawfUPxX1//SM1CYpg/7Hf/tNtftvf+D8+dgj6qBf+9YRp12qeVG9Xux//a3d6bHMbD5zpp6a+f/w/5Z/+/3aG3J7R1n33bMuBtLsScE/OYT2+WI1ncdMBn21tF+MYUkXOmalw6mZx60A/TrSx67Qfs1vS40X2xfrm9p2SW25+6xUvd8eG2ta9feVeZ/Z94f0fvPfZ25N7AJbXomTPid/n92WamNy6td/Rm/C+Y568pS7vwpqN6CLuj0/+kun5sfqST/Eq7G0uvbPr6o9rfFj2g/fNTj36839+5sfquN133Kpv2vNfJVBb4L74IFqXxnMk+3CM4eLmmaQXz3ohH11ESCGefQiQFLN6HUg17N6YZZ//Dvqx41Zf1Xz+XfU7npfGfRmrHq/vGJgHsD71ZfU286+sHL2H7xXP2TQm+Xr1Ex9uHvZ+kQROlnknERiNVJbe5//8J2n/hyrOvdzrk7Y7onVnMwbF0BVvylvcaTo43A/DnH7uPw2d1vqlzuW/jjF7euS2nL3WfY1fH6N9LG7ry93nPK9UajfC9X3UeO9Ub5fGmHduAAV2mtlm/u96x9DaL+7Heojyald/6CXQj0znFurAeJFQ3lB0LxIyBSb0YfaTn5YBPtn6uzBzBp3f0Rz9u1xAzqpCnqvTyPEnVm/W9MM8Oas3fS3Y5qLBGGFIEgO4nL2LszEHeWs3a2pgt4b6+Dfu8Gvlcvx6WV7a37L97N8CM+nTxKxE0XOSaRr/+iYkRl9OUtvr2CYk7f9eoUukpIrBdOLfa7Rz7ni17jb+mOJW+/q2+ZzXytF6q9Jbf4+dzs2lqRLfeO9UvHfV/L3nztTb87aG/Xe96U+Npe0z91fvlb8c/LbYrXWAgS9XZLXS+7Odms531uOt1pB31zun0os6E1YuzN1y3mAL6em1TZrOUFfzfADynB3LwZsfRXuOujdZf6kQNDrGfwvf6BOHJ/sM4FtZ+y1dtDr2wD1OKLc+/PWvII+NluYkE5YXeiTgz1BdDmpSLr2j44ZCWTzOUsrGKZPdaJ2P25oz7SGFvtco59zRdf43Da3NrTP8ttSY4Xkvm5szCHqXX57qt6VE/SmphhTVL3/Ju/FakXAvmdN0Dfff7qf/djl73e3Q300qZ/ErVmIoLez7nImXgZ6cwZuQ35yMaDJM3qCPi4/6Fszek89i9cz/eJfva0vAszqwxBBb2b0k6AvQ74Z/KEZfTro+83o8+t7CgaVa9jQ8k8Krlib5dbYk4zdF/o3aM5B7x7rtGKfa85r+DWp/rExY/Wxfr7c142NOUS9y2/X2xK3xsoO+sRF9GQWX7yvin+/UWybi/Os79+Sf4zucYeOX5P6uduSBQn6KrT18r1Ztm8Gemj5fV2DfgMs3afGNcdU1Oh/zSxfz+SrwO92THLQN0M8p0bLDfqB79EPJBhmrg4nkxxdTioSXWNJbdLHQZGg90/IVuPE3HHpPnTcffhjhT6WtmNCtbEx+vSRSPW5+6wh6l1+e6relRP0ofdZg34/6XGKf03A6/ddFfjSRYI+xtRx2+3U55MaR7IwQV+G9Kp6Qi/bt56Sb9/HNyG/nkv39UN7woN29VP1OTXzlhP0BXOfPTGrN0v0r6nf1Pfj9UpAsV0v6Xv1QUKIm2X7ZmD799knT9X3C/qcn6Gv5T51/+k76ltSew7v/p6seX9wCLETRc5JJKZz/0jQ2xBvXAiZejfY7VKqe6IuZ/OhC6hpP0fLHccfM7UdE6qNjSG12X25r93ldWNj6jaJVKvltLk1sXpfTtDX7xchsGvV9+pLh+17tfq+LLbd95k+Nun4cvf5bI1bm9NvcYK+Xp4PBHX1gF59b74I/da9/LkGfal8qn7i2lt/0atmfjKDXqvCvsGtqZ68d8cy4xT7xKfxI6R77/pH5Jp11YN2lg791gN7HYK+mqWn77tn3J//9jvqUx30az9TP/m20J5hshwotxtZFwN5pJNGTlsXnfvHgt6oTsI1udac0J260IWRbpP2TyM0pns8ua8r1dl9sTH8Nmk71l8Ltbv77cexsaQ2f1+fcXL6+PKCXvPfZ5r7XmtfDJTj5F2ES8cs7XP57eUxpenaBQp6YB0M+JvxTl2bJujLE0fqJCGdqKZhTwSSWFuuIcZYJkN+vtP839h2/W9qHKkm1sfXpTYmNk6oTe9Pkfqtp9AxxY512s+DoMeGZ+7Vh8LeXAhk3Ju3M/q+P0dvZrKJ+4LVxcAsnxwHMD4EPVDo/9fr3lD/xyzZr6lPf3JYaAeA9UXQAwAwYgQ9AAAjRtADADBiBD0AACM216Df+vB2BQAAxomgBwBgxAh6AABGjKAHAGDECHoAAEaMoAcAYLS2q/8BMgmvcra02hUAAAAASUVORK5CYII=;" parent="1" vertex="1">
                    <mxGeometry x="79.89" y="510" width="236.26" height="120" as="geometry"/>
                </mxCell>
                <mxCell id="10" value="" style="shape=image;verticalLabelPosition=bottom;labelBackgroundColor=default;verticalAlign=top;aspect=fixed;imageAspect=0;image=data:image/png,iVBORw0KGgoAAAANSUhEUgAAAMIAAAAoCAYAAACsPiXVAAAAAXNSR0IArs4c6QAAAARnQU1BAACxjwv8YQUAAAAJcEhZcwAADsMAAA7DAcdvqGQAAAShSURBVHhe7ZxNaxNBGMf7USr0k/Qj+AUkWKR3Dx7soVBCwIPiQUJRBHsq7UEkUETyDUoDXmo9imAgVSj4EqLWcZ6ZnZ33zWyyq7vt/wcD3Z2dl23//3mezU66wgAADEYAgAMjAMBptRE+frnMfrL5Ov3Dpj+zAwASaKURyACPX8/YzUff2Xr3W7A8eTMThgAghVYaoT+c2cJ/S5Hhkh2Z53ghMyAygBRqMsKIdW+ssVVRNtj+ODtdEV4kiBiBCqICSKEWI0wON1jncJIdVY8r9qICQApzjXB+/pndvXef3bq96RU6H+Kkt8a6x9lBzoTtd1SUWHOMYkaQUFsbLfQZG02zk5GIAEAKSRGBzBAywruz99kVEooESsx56Y1EHZlDi1+aQgre/JkgUxSnU67Y17u/2AcYASxBcmr08tXAMgEdx/AjAondFrdOn0j4PXYiTwvCEUXjih1GAMuSbASKCr0HD4UJYimRAkYAbaPUw7JKkdyUyCUkZDqnUyP5TCCvcVKj8QHrFKRG9CnQnWc/HMGHjUCfLsVeugFgUsoIxDwTEOEV3X4gth6Whfh1XVE0IOj9gDaAw/Q362dGoJduAKRQ2ghN4OzTpTCDHxlkoUhAL90QDUAqrTSCAi/LQFW02ggAVAWMAAAHRgCAAyMAwIERAODACKAasndB894BNZXajFC0F8lmxPbyPUy77DQ7S0wG29n5TbYz0K+aT/t6z5Nbtxg0B3vsFGgee+bekFoYs+GWutdtNrRuNf67W4jjXv5Sc9XY9pK0rb4yI/hbbv4FtRmB/ji0N4m2ZRQTFyEZISRyS4DjI7bjCaQsTTaCggwRu8/F5m/hbG0RO4k7B4zkn2SEyriCRqBCG/SKo8OSRshWTHks+xoakcS9Tp1X/brRRZS+3Doea8NOdu3rRZH3QP1Zc6Zrt46koPi89gZk3KxNPg5HGNruy6a8EWirixLzPHyx642Ssu5Ab5HJttYTYow8ijgRwYww7jwC0cftSxRjrDqp3QiqPH3+IhIdljSCEJBqT30ZQqS6TIS2QE3zEOE5FLdx5qEwxiTMa2Sqp8Yx+3PGN8yjqdcIof1h6pyIDvkq7X5/RGP1QRHGGFv0oUQtok9s1b+iEUEVSpPCLGYE3bcpjlhfvojsvkPt5rWJGMFqx/s1BO22z49DEaYCI5RhnhHMaOFHD4nZhzRPeHWPtZcgNfIoMoIvQKIJRuBwYSuBm/Wh9uo6K00KUq8RfHG6qZGuC5mGcI0QE/u1M0I8Cpj8CyMYohPQdWYfdOyLrLiNW2/Cr+Ur+rBvz8U3nxozPL5NeSOQMFNTIzddIbGGH5ZJqOHvi1gGKUp/xPNBTOzx/uukNiOU+/i0fiPIOp16uP3SWKpOr87FbYoecGmO7ipvjcGLdQ9OeuTfd81G4AjxqzTGze+NFCcUDQg3UhS1s+tsU1h1bX9YTqe8EZpPWLTL3U+9qdHy+F/HbRMNMYJaCe0/prmCtsMQJFY531DEWswIus/aX6iVhtIYtaq7/6KnXTTACAD8f2AEADgwAgAcGAEAzsrFxQVDQbnuBREBAA6MAAAHRgCAMfYXMU436ITD5RMAAAAASUVORK5CYII=;" parent="1" vertex="1">
                    <mxGeometry x="400" y="555" width="145.5" height="30" as="geometry"/>
                </mxCell>
                <mxCell id="15" value="&lt;br&gt;&lt;font style=&quot;&quot;&gt;&lt;font style=&quot;background-color: rgb(255, 51, 51);&quot; color=&quot;#ffff00&quot;&gt;优先级总结：&lt;/font&gt;&lt;br&gt;&lt;font color=&quot;#ffffff&quot;&gt;new操作符绑定 &amp;gt; 显示绑定(call、bind) &amp;gt; 隐式绑定（对象嵌套函数） &amp;gt; 默认绑定（全局调window）&lt;br&gt;&lt;/font&gt;&lt;font style=&quot;background-color: rgb(255, 0, 0);&quot; color=&quot;#ffff00&quot;&gt;注意：箭头函数不存在this，会从上层作用域开始查找&lt;/font&gt;&lt;br&gt;&lt;/font&gt;" style="text;strokeColor=none;align=center;fillColor=none;html=1;verticalAlign=middle;whiteSpace=wrap;rounded=0;" parent="1" vertex="1">
                    <mxGeometry x="79.89" y="700" width="600" height="60" as="geometry"/>
                </mxCell>
                <mxCell id="17" value="" style="edgeStyle=none;orthogonalLoop=1;jettySize=auto;html=1;" parent="1" edge="1">
                    <mxGeometry width="100" relative="1" as="geometry">
                        <mxPoint x="293.61" y="202.5" as="sourcePoint"/>
                        <mxPoint x="393.61" y="202.5" as="targetPoint"/>
                        <Array as="points"/>
                    </mxGeometry>
                </mxCell>
            </root>
        </mxGraphModel>
    </diagram>
</mxfile>